<svg width="172" height="36" viewBox="0 0 172 36" fill="none" xmlns="http://www.w3.org/2000/svg">
<path d="M6.49139 14.1008C7.326 12.8917 8.46972 11.9093 9.92256 11.1537C11.4063 10.398 13.091 10.0202 14.9766 10.0202C17.1713 10.0202 19.1496 10.5491 20.9116 11.6071C22.7044 12.665 24.1109 14.1763 25.131 16.1411C26.1819 18.0756 26.7074 20.3275 26.7074 22.8967C26.7074 25.466 26.1819 27.7481 25.131 29.7431C24.1109 31.7078 22.7044 33.2343 20.9116 34.3224C19.1496 35.4106 17.1713 35.9547 14.9766 35.9547C13.0601 35.9547 11.3754 35.5919 9.92256 34.8665C8.50063 34.1108 7.35691 33.1436 6.49139 31.9647V35.5466H0V1.99496H6.49139V14.1008ZM20.077 22.8967C20.077 21.3854 19.7524 20.0856 19.1032 18.9975C18.485 17.8791 17.6504 17.0327 16.5994 16.4584C15.585 15.8855 14.4324 15.5882 13.261 15.597C12.0864 15.597 10.9735 15.8992 9.92256 16.5038C8.90248 17.0781 8.06787 17.9244 7.41873 19.0428C6.80051 20.1612 6.49139 21.4761 6.49139 22.9874C6.49139 24.4987 6.80051 25.8136 7.41873 26.932C8.06787 28.0504 8.90248 28.9118 9.92256 29.5164C10.9735 30.0907 12.0864 30.3778 13.261 30.3778C14.4665 30.3778 15.5793 30.0756 16.5994 29.471C17.6504 28.8665 18.485 28.005 19.1032 26.8867C19.7524 25.7683 20.077 24.4383 20.077 22.8967ZM34.7161 7.43577C33.5723 7.43577 32.6141 7.08816 31.8413 6.39295C31.0994 5.66751 30.7285 4.77582 30.7285 3.71788C30.7285 2.65995 31.0994 1.78338 31.8413 1.08816C32.6141 0.362721 33.5723 0 34.7161 0C35.8598 0 36.8026 0.362721 37.5445 1.08816C38.3172 1.78338 38.7036 2.65995 38.7036 3.71788C38.7036 4.77582 38.3172 5.66751 37.5445 6.39295C36.8026 7.08816 35.8598 7.43577 34.7161 7.43577ZM37.9154 10.4282V35.5466H31.424V10.4282H37.9154ZM59.5379 35.5466L50.8209 24.8463V35.5466H44.3295V1.99496H50.8209V21.0831L59.4452 10.4282H67.884L56.5704 23.0327L67.9767 35.5466H59.5379ZM68.4494 22.9874C68.4494 20.3879 68.9904 18.1209 70.0723 16.1864C71.1542 14.2217 72.6534 12.7103 74.5699 11.6524C76.4864 10.5642 78.6811 10.0202 81.154 10.0202C84.3379 10.0202 86.9653 10.806 89.0364 12.3778C91.1384 13.9194 92.5448 16.0957 93.2558 18.9068H86.2557C85.8847 17.8186 85.2511 16.9723 84.3546 16.3678C83.4891 15.733 82.4072 15.4156 81.1089 15.4156C79.2542 15.4156 77.7859 16.0806 76.704 17.4106C75.6221 18.7103 75.0812 20.5693 75.0812 22.9874C75.0812 25.3753 75.6221 27.2343 76.704 28.5642C77.7859 29.864 79.2542 30.5139 81.1089 30.5139C83.7364 30.5139 85.452 29.3652 86.2557 27.068H93.2571C92.5461 29.7884 91.1397 31.9496 89.0377 33.5516C86.9357 35.1537 84.3082 35.9547 81.1553 35.9547C78.6824 35.9547 76.4877 35.4257 74.5712 34.3678C72.6699 33.295 71.1123 31.7248 70.0736 29.8338C68.9917 27.869 68.4507 25.5869 68.4507 22.9874H68.4494ZM103.216 14.3275C104.012 13.0346 105.128 11.9587 106.461 11.199C107.822 10.4433 109.367 10.0655 111.098 10.0655V16.7305H109.383C107.342 16.7305 105.797 17.199 104.746 18.136C103.726 19.073 103.216 20.7053 103.216 23.0327V35.5466H96.7243V10.4282H103.216V14.3275ZM131.002 31.9647C130.292 33.1134 129.132 34.0806 127.525 34.8665C125.918 35.6222 124.187 36 122.332 36C120.724 36 119.272 35.6826 117.973 35.0479C116.675 34.4131 115.655 33.5365 114.913 32.4181C114.171 31.2997 113.8 30.0151 113.8 28.5642C113.8 26.2368 114.681 24.3325 116.443 22.8514C118.236 21.3703 120.91 20.6297 124.465 20.6297H131.002C130.941 19.0277 130.462 17.7582 129.565 16.8212C128.7 15.8539 127.494 15.3703 125.948 15.3703C124.588 15.3703 123.46 15.733 122.564 16.4584C121.667 17.1537 121.095 18.136 120.848 19.4055H114.357C114.666 17.5919 115.33 15.9748 116.35 14.5542C117.392 13.1108 118.798 11.955 120.431 11.199C122.131 10.3829 124.032 9.97481 126.134 9.97481C128.298 9.97481 130.245 10.4131 131.976 11.2897C133.696 12.1271 135.129 13.4344 136.103 15.0529C137.092 16.6851 137.587 18.6045 137.587 20.8111V35.5466H131.002V31.9647ZM124.233 30.8766C125.315 30.8766 126.366 30.6499 127.386 30.1965C128.437 29.7431 129.302 29.063 129.982 28.1562C130.662 27.2494 131.002 26.1763 131.002 24.937V24.7557H124.836C123.352 24.7557 122.239 25.0428 121.497 25.6171C120.786 26.1914 120.431 26.9471 120.431 27.8841C120.431 28.7909 120.755 29.5164 121.404 30.0605C122.085 30.6045 123.027 30.8766 124.233 30.8766ZM151.276 15.6423V35.5466H144.692V15.6423H141.771V10.4282H144.692V9.15869C144.692 6.07557 145.589 3.80856 147.382 2.35768C149.175 0.906801 151.879 0.2267 155.496 0.31738V5.66751C153.919 5.63728 152.822 5.89421 152.204 6.43829C151.586 6.98237 151.276 7.96474 151.276 9.38539V10.4282H159.713V4.21662H166.25V10.4282H172V15.6423H166.25V27.7935C166.25 28.6398 166.451 29.2594 166.853 29.6524C167.286 30.0151 167.997 30.1965 168.986 30.1965H172V35.5466H167.92C162.448 35.5466 159.713 32.9471 159.713 27.7481V15.6423H151.276Z" fill="#9C9C9C"/>
</svg>
