<svg width="272" height="35" viewBox="0 0 272 35" fill="none" xmlns="http://www.w3.org/2000/svg">
<path d="M0 34.4199V0.580109H10.5636C16.6233 0.580109 21.078 2.09484 23.9277 5.12431C26.8102 8.15378 28.2514 12.3112 28.2514 17.5967C28.2514 22.7855 26.8102 26.8946 23.9277 29.924C21.078 32.9213 16.6233 34.4199 10.5636 34.4199H0ZM4.12717 31.0359H10.4653C13.8064 31.0359 16.4595 30.5041 18.4249 29.4406C20.4229 28.3448 21.8478 26.7979 22.6994 24.7997C23.5511 22.7693 23.9769 20.3683 23.9769 17.5967C23.9769 14.7606 23.5511 12.3273 22.6994 10.297C21.8478 8.26657 20.4229 6.7035 18.4249 5.60774C16.4595 4.51197 13.8064 3.96409 10.4653 3.96409H4.12717V31.0359Z" fill="#9C9C9C"/>
<path d="M46.0518 35C43.7589 35 41.6953 34.4843 39.861 33.453C38.0267 32.4217 36.5691 30.9715 35.4882 29.1022C34.44 27.2007 33.9159 24.977 33.9159 22.4309C33.9159 19.8849 34.4564 17.6773 35.5373 15.808C36.6182 13.9065 38.0759 12.4401 39.9102 11.4088C41.7772 10.3775 43.8572 9.86188 46.15 9.86188C48.4429 9.86188 50.5065 10.3775 52.3408 11.4088C54.1751 12.4401 55.6163 13.9065 56.6645 15.808C57.7454 17.6773 58.2859 19.8849 58.2859 22.4309C58.2859 24.977 57.7454 27.2007 56.6645 29.1022C55.5836 30.9715 54.1096 32.4217 52.2425 33.453C50.4082 34.4843 48.3446 35 46.0518 35ZM46.0518 31.5193C47.4603 31.5193 48.7705 31.1809 49.9824 30.5041C51.1944 29.8273 52.177 28.8122 52.9304 27.4586C53.6838 26.105 54.0604 24.4291 54.0604 22.4309C54.0604 20.4328 53.6838 18.7569 52.9304 17.4033C52.2098 16.0497 51.2435 15.0345 50.0315 14.3577C48.8196 13.6809 47.5258 13.3425 46.15 13.3425C44.7416 13.3425 43.4313 13.6809 42.2194 14.3577C41.0075 15.0345 40.0248 16.0497 39.2714 17.4033C38.5181 18.7569 38.1414 20.4328 38.1414 22.4309C38.1414 24.4291 38.5181 26.105 39.2714 27.4586C40.0248 28.8122 40.9911 29.8273 42.1703 30.5041C43.3822 31.1809 44.6761 31.5193 46.0518 31.5193Z" fill="#9C9C9C"/>
<path d="M76.2094 35C73.8838 35 71.7875 34.4843 69.9204 33.453C68.0861 32.3895 66.6285 30.9231 65.5476 29.0539C64.4994 27.1524 63.9753 24.9448 63.9753 22.4309C63.9753 19.9171 64.4994 17.7256 65.5476 15.8564C66.6285 13.9549 68.0861 12.4885 69.9204 11.4572C71.7875 10.3936 73.8838 9.86188 76.2094 9.86188C79.0919 9.86188 81.5158 10.6031 83.4811 12.0856C85.4792 13.5681 86.7402 15.5502 87.2643 18.0318H83.0389C82.7113 16.5493 81.9088 15.4052 80.6314 14.5994C79.3539 13.7615 77.8636 13.3425 76.1603 13.3425C74.7846 13.3425 73.4907 13.6809 72.2788 14.3577C71.0668 15.0345 70.0842 16.0497 69.3308 17.4033C68.5774 18.7569 68.2007 20.4328 68.2007 22.4309C68.2007 24.4291 68.5774 26.105 69.3308 27.4586C70.0842 28.8122 71.0668 29.8435 72.2788 30.5525C73.4907 31.2293 74.7846 31.5677 76.1603 31.5677C77.8636 31.5677 79.3539 31.1648 80.6314 30.3591C81.9088 29.5212 82.7113 28.3448 83.0389 26.8301H87.2643C86.773 29.2472 85.5283 31.2132 83.5302 32.7279C81.5322 34.2426 79.0919 35 76.2094 35Z" fill="#9C9C9C"/>
<path d="M102.969 34.4199C100.742 34.4199 98.9895 33.8881 97.712 32.8246C96.4345 31.7611 95.7958 29.8435 95.7958 27.0718V13.8743H91.5704V10.442H95.7958L96.3363 4.68923H99.923V10.442H107.096V13.8743H99.923V27.0718C99.923 28.5866 100.234 29.6179 100.857 30.1657C101.479 30.6814 102.576 30.9392 104.148 30.9392H106.703V34.4199H102.969Z" fill="#9C9C9C"/>
<path d="M123.755 35C121.462 35 119.398 34.4843 117.564 33.453C115.73 32.4217 114.272 30.9715 113.191 29.1022C112.143 27.2007 111.619 24.977 111.619 22.4309C111.619 19.8849 112.159 17.6773 113.24 15.808C114.321 13.9065 115.779 12.4401 117.613 11.4088C119.48 10.3775 121.56 9.86188 123.853 9.86188C126.146 9.86188 128.209 10.3775 130.044 11.4088C131.878 12.4401 133.319 13.9065 134.367 15.808C135.448 17.6773 135.989 19.8849 135.989 22.4309C135.989 24.977 135.448 27.2007 134.367 29.1022C133.287 30.9715 131.813 32.4217 129.946 33.453C128.111 34.4843 126.048 35 123.755 35ZM123.755 31.5193C125.163 31.5193 126.473 31.1809 127.685 30.5041C128.897 29.8273 129.88 28.8122 130.633 27.4586C131.387 26.105 131.763 24.4291 131.763 22.4309C131.763 20.4328 131.387 18.7569 130.633 17.4033C129.913 16.0497 128.946 15.0345 127.735 14.3577C126.523 13.6809 125.229 13.3425 123.853 13.3425C122.445 13.3425 121.134 13.6809 119.922 14.3577C118.71 15.0345 117.728 16.0497 116.974 17.4033C116.221 18.7569 115.844 20.4328 115.844 22.4309C115.844 24.4291 116.221 26.105 116.974 27.4586C117.728 28.8122 118.694 29.8273 119.873 30.5041C121.085 31.1809 122.379 31.5193 123.755 31.5193Z" fill="#9C9C9C"/>
<path d="M142.71 34.4199V10.442H146.444L146.788 15.0345C147.542 13.4553 148.688 12.1984 150.227 11.2638C151.767 10.3292 153.667 9.86188 155.927 9.86188V14.116H154.797C153.356 14.116 152.029 14.3739 150.817 14.8895C149.605 15.3729 148.639 16.2109 147.918 17.4033C147.198 18.5958 146.837 20.2394 146.837 22.3343V34.4199H142.71Z" fill="#9C9C9C"/>
<path d="M177.068 35C173.596 35 170.615 34.2749 168.126 32.8246C165.636 31.3421 163.72 29.2956 162.377 26.6851C161.034 24.0424 160.363 20.9968 160.363 17.5483C160.363 14.0999 161.034 11.0543 162.377 8.4116C163.72 5.76888 165.636 3.70626 168.126 2.22376C170.615 0.741252 173.596 0 177.068 0C181.195 0 184.569 1.01519 187.189 3.04558C189.842 5.04374 191.497 7.86372 192.152 11.5055H185.224C184.798 9.66851 183.881 8.23435 182.472 7.20304C181.097 6.1395 179.262 5.60774 176.97 5.60774C173.792 5.60774 171.303 6.67127 169.501 8.79834C167.7 10.9254 166.799 13.8421 166.799 17.5483C166.799 21.2546 167.7 24.1713 169.501 26.2983C171.303 28.3932 173.792 29.4406 176.97 29.4406C179.262 29.4406 181.097 28.9572 182.472 27.9903C183.881 26.9913 184.798 25.6215 185.224 23.8812H192.152C191.497 27.3619 189.842 30.0852 187.189 32.0511C184.569 34.017 181.195 35 177.068 35Z" fill="#9C9C9C"/>
<path d="M206.956 35C204.859 35 203.14 34.6777 201.797 34.0332C200.454 33.3564 199.455 32.4701 198.8 31.3743C198.144 30.2785 197.817 29.07 197.817 27.7486C197.817 25.5249 198.701 23.7201 200.47 22.3343C202.239 20.9484 204.892 20.2555 208.43 20.2555H214.62V19.6754C214.62 18.0318 214.145 16.8232 213.196 16.0497C212.246 15.2762 211.066 14.8895 209.658 14.8895C208.381 14.8895 207.267 15.1957 206.317 15.808C205.367 16.3881 204.777 17.2583 204.548 18.4185H198.407C198.57 16.6782 199.16 15.1634 200.175 13.8743C201.223 12.5852 202.566 11.6022 204.204 10.9254C205.842 10.2164 207.676 9.86188 209.707 9.86188C213.179 9.86188 215.914 10.7159 217.912 12.424C219.91 14.1321 220.909 16.5493 220.909 19.6754V34.4199H215.554L214.964 30.5525C214.244 31.8416 213.228 32.9052 211.918 33.7431C210.641 34.581 208.986 35 206.956 35ZM208.381 30.1657C210.182 30.1657 211.574 29.5856 212.557 28.4254C213.572 27.2652 214.211 25.831 214.473 24.1229H209.118C207.447 24.1229 206.251 24.4291 205.531 25.0414C204.81 25.6215 204.45 26.3467 204.45 27.2169C204.45 28.1515 204.81 28.8766 205.531 29.3923C206.251 29.9079 207.201 30.1657 208.381 30.1657Z" fill="#9C9C9C"/>
<path d="M227.894 34.4199V10.442H233.495L234.084 14.9378C234.969 13.3909 236.164 12.1662 237.671 11.2638C239.211 10.3292 241.012 9.86188 243.076 9.86188V16.3881H241.307C239.931 16.3881 238.703 16.5976 237.622 17.0166C236.541 17.4355 235.689 18.1607 235.067 19.192C234.477 20.2233 234.183 21.6575 234.183 23.4945V34.4199H227.894Z" fill="#9C9C9C"/>
<path d="M259.766 35C257.309 35 255.131 34.4843 253.231 33.453C251.331 32.4217 249.841 30.9715 248.76 29.1022C247.679 27.233 247.139 25.0737 247.139 22.6243C247.139 20.1427 247.663 17.9351 248.711 16.0014C249.792 14.0677 251.266 12.5691 253.133 11.5055C255.033 10.4098 257.26 9.86188 259.815 9.86188C262.206 9.86188 264.319 10.3775 266.153 11.4088C267.987 12.4401 269.412 13.8582 270.428 15.663C271.476 17.4355 272 19.4176 272 21.6091C272 21.9636 271.984 22.3343 271.951 22.721C271.951 23.1077 271.934 23.5106 271.902 23.9296H253.379C253.51 25.7988 254.165 27.2652 255.344 28.3287C256.556 29.3923 258.013 29.924 259.717 29.924C260.994 29.924 262.059 29.6501 262.91 29.1022C263.795 28.5221 264.45 27.7808 264.876 26.8785H271.263C270.804 28.3932 270.035 29.779 268.954 31.0359C267.906 32.2606 266.595 33.2274 265.023 33.9365C263.484 34.6455 261.731 35 259.766 35ZM259.815 14.8895C258.276 14.8895 256.916 15.3246 255.737 16.1948C254.558 17.0327 253.804 18.3218 253.477 20.0622H265.613C265.514 18.483 264.925 17.2261 263.844 16.2914C262.763 15.3568 261.42 14.8895 259.815 14.8895Z" fill="#9C9C9C"/>
</svg>
