<svg width="117" height="34" viewBox="0 0 117 34" fill="none" xmlns="http://www.w3.org/2000/svg">
<path d="M2.46045 0.335938V11H0.263184V0.335938H2.46045ZM6.7085 4.8916V6.60547H1.85986V4.8916H6.7085ZM7.22119 0.335938V2.05713H1.85986V0.335938H7.22119ZM10.832 0.335938V11H8.64209V0.335938H10.832ZM15.0874 0.335938V11H12.8901V0.335938H15.0874ZM19.3354 4.8916V6.60547H14.4868V4.8916H19.3354ZM19.8481 0.335938V2.05713H14.4868V0.335938H19.8481ZM24.1108 2.15967L21.2104 11H18.874L22.8364 0.335938H24.3232L24.1108 2.15967ZM26.5205 11L23.6128 2.15967L23.3784 0.335938H24.8799L28.8643 11H26.5205ZM26.3887 7.03027V8.75146H20.7563V7.03027H26.3887ZM36.1592 9.30811L38.2832 0.335938H39.4697L39.7407 1.83008L37.4775 11H36.2031L36.1592 9.30811ZM35.0679 0.335938L36.8257 9.30811L36.6792 11H35.2583L32.8926 0.335938H35.0679ZM41.6084 9.27148L43.3442 0.335938H45.5195L43.1611 11H41.7402L41.6084 9.27148ZM40.1362 0.335938L42.2749 9.34473L42.2163 11H40.9419L38.6641 1.82275L38.957 0.335938H40.1362ZM55.4731 5.41895V5.92432C55.4731 6.73486 55.3633 7.4624 55.1436 8.10693C54.9238 8.75146 54.6138 9.30078 54.2134 9.75488C53.813 10.2041 53.3345 10.5483 52.7778 10.7876C52.2261 11.0269 51.6133 11.1465 50.9395 11.1465C50.2705 11.1465 49.6577 11.0269 49.1011 10.7876C48.5493 10.5483 48.0708 10.2041 47.6655 9.75488C47.2603 9.30078 46.9453 8.75146 46.7207 8.10693C46.501 7.4624 46.3911 6.73486 46.3911 5.92432V5.41895C46.3911 4.60352 46.501 3.87598 46.7207 3.23633C46.9404 2.5918 47.2505 2.04248 47.6509 1.58838C48.0562 1.13428 48.5347 0.787598 49.0864 0.54834C49.6431 0.309082 50.2559 0.189453 50.9248 0.189453C51.5986 0.189453 52.2114 0.309082 52.7632 0.54834C53.3198 0.787598 53.7983 1.13428 54.1987 1.58838C54.604 2.04248 54.9165 2.5918 55.1362 3.23633C55.3608 3.87598 55.4731 4.60352 55.4731 5.41895ZM53.2539 5.92432V5.4043C53.2539 4.83789 53.2026 4.33984 53.1001 3.91016C52.9976 3.48047 52.8462 3.11914 52.646 2.82617C52.4458 2.5332 52.2017 2.31348 51.9136 2.16699C51.6255 2.01562 51.2959 1.93994 50.9248 1.93994C50.5537 1.93994 50.2241 2.01562 49.936 2.16699C49.6528 2.31348 49.4111 2.5332 49.2109 2.82617C49.0156 3.11914 48.8667 3.48047 48.7642 3.91016C48.6616 4.33984 48.6104 4.83789 48.6104 5.4043V5.92432C48.6104 6.48584 48.6616 6.98389 48.7642 7.41846C48.8667 7.84814 49.0181 8.21191 49.2183 8.50977C49.4185 8.80273 49.6626 9.0249 49.9507 9.17627C50.2388 9.32764 50.5684 9.40332 50.9395 9.40332C51.3105 9.40332 51.6401 9.32764 51.9282 9.17627C52.2163 9.0249 52.458 8.80273 52.6533 8.50977C52.8486 8.21191 52.9976 7.84814 53.1001 7.41846C53.2026 6.98389 53.2539 6.48584 53.2539 5.92432ZM57.0552 0.335938H61.0322C61.8477 0.335938 62.5483 0.458008 63.1343 0.702148C63.7251 0.946289 64.1792 1.30762 64.4966 1.78613C64.814 2.26465 64.9727 2.85303 64.9727 3.55127C64.9727 4.12256 64.875 4.61328 64.6797 5.02344C64.4893 5.42871 64.2183 5.76807 63.8667 6.0415C63.52 6.31006 63.1123 6.5249 62.6436 6.68604L61.9478 7.05225H58.4907L58.4761 5.33838H61.0469C61.4326 5.33838 61.7524 5.27002 62.0063 5.1333C62.2603 4.99658 62.4507 4.80615 62.5776 4.56201C62.7095 4.31787 62.7754 4.03467 62.7754 3.7124C62.7754 3.37061 62.7119 3.0752 62.585 2.82617C62.458 2.57715 62.2651 2.38672 62.0063 2.25488C61.7476 2.12305 61.4229 2.05713 61.0322 2.05713H59.2524V11H57.0552V0.335938ZM63.0171 11L60.5854 6.24658L62.9072 6.23193L65.3682 10.8975V11H63.0171ZM73.52 9.28613V11H68.1514V9.28613H73.52ZM68.8618 0.335938V11H66.6646V0.335938H68.8618ZM78.0537 11H75.7319L75.7466 9.28613H78.0537C78.6299 9.28613 79.1157 9.15674 79.5112 8.89795C79.9067 8.63428 80.2046 8.25098 80.4048 7.74805C80.6099 7.24512 80.7124 6.63721 80.7124 5.92432V5.4043C80.7124 4.85742 80.6538 4.37646 80.5366 3.96143C80.4243 3.54639 80.2559 3.19727 80.0312 2.91406C79.8066 2.63086 79.5308 2.41846 79.2036 2.27686C78.8765 2.13037 78.5005 2.05713 78.0757 2.05713H75.688V0.335938H78.0757C78.7886 0.335938 79.4404 0.458008 80.0312 0.702148C80.627 0.941406 81.1421 1.28564 81.5767 1.73486C82.0112 2.18408 82.3457 2.72119 82.5801 3.34619C82.8193 3.96631 82.939 4.65723 82.939 5.41895V5.92432C82.939 6.68115 82.8193 7.37207 82.5801 7.99707C82.3457 8.62207 82.0112 9.15918 81.5767 9.6084C81.147 10.0527 80.6318 10.397 80.0312 10.6411C79.4355 10.8804 78.7764 11 78.0537 11ZM76.9771 0.335938V11H74.7798V0.335938H76.9771ZM94.4526 7.4624H96.6426C96.5986 8.18018 96.4009 8.81738 96.0493 9.37402C95.7026 9.93066 95.2168 10.3652 94.5918 10.6777C93.9717 10.9902 93.2246 11.1465 92.3506 11.1465C91.667 11.1465 91.0542 11.0293 90.5122 10.7949C89.9702 10.5557 89.5063 10.2139 89.1206 9.76953C88.7397 9.3252 88.4492 8.78809 88.249 8.1582C88.0488 7.52832 87.9487 6.82275 87.9487 6.0415V5.30176C87.9487 4.52051 88.0513 3.81494 88.2563 3.18506C88.4663 2.55029 88.7642 2.01074 89.1499 1.56641C89.5405 1.12207 90.0068 0.780273 90.5488 0.541016C91.0908 0.301758 91.6963 0.182129 92.3652 0.182129C93.2539 0.182129 94.0034 0.343262 94.6138 0.665527C95.229 0.987793 95.7051 1.43213 96.042 1.99854C96.3838 2.56494 96.5889 3.20947 96.6572 3.93213H94.46C94.4355 3.50244 94.3501 3.13867 94.2036 2.84082C94.0571 2.53809 93.835 2.31104 93.5371 2.15967C93.2441 2.00342 92.8535 1.92529 92.3652 1.92529C91.999 1.92529 91.6792 1.99365 91.4058 2.13037C91.1323 2.26709 90.9028 2.47461 90.7173 2.75293C90.5317 3.03125 90.3926 3.38281 90.2998 3.80762C90.2119 4.22754 90.168 4.7207 90.168 5.28711V6.0415C90.168 6.59326 90.2095 7.0791 90.2925 7.49902C90.3755 7.91406 90.5024 8.26562 90.6733 8.55371C90.8491 8.83691 91.0737 9.05176 91.3472 9.19824C91.6255 9.33984 91.96 9.41064 92.3506 9.41064C92.8096 9.41064 93.188 9.3374 93.4858 9.19092C93.7837 9.04443 94.0107 8.82715 94.167 8.53906C94.3281 8.25098 94.4233 7.89209 94.4526 7.4624ZM103.974 0.335938H106.164V7.38184C106.164 8.20215 105.988 8.89307 105.637 9.45459C105.29 10.0161 104.809 10.4385 104.194 10.7217C103.583 11.0049 102.88 11.1465 102.084 11.1465C101.289 11.1465 100.581 11.0049 99.9604 10.7217C99.3452 10.4385 98.8618 10.0161 98.5103 9.45459C98.1636 8.89307 97.9902 8.20215 97.9902 7.38184V0.335938H100.188V7.38184C100.188 7.86035 100.263 8.25098 100.415 8.55371C100.566 8.85645 100.783 9.07861 101.066 9.22021C101.354 9.36182 101.694 9.43262 102.084 9.43262C102.485 9.43262 102.824 9.36182 103.103 9.22021C103.386 9.07861 103.601 8.85645 103.747 8.55371C103.898 8.25098 103.974 7.86035 103.974 7.38184V0.335938ZM112.126 7.19873H109.409V5.48486H112.126C112.546 5.48486 112.888 5.4165 113.151 5.27979C113.415 5.13818 113.608 4.94287 113.73 4.69385C113.852 4.44482 113.913 4.16406 113.913 3.85156C113.913 3.53418 113.852 3.23877 113.73 2.96533C113.608 2.69189 113.415 2.47217 113.151 2.30615C112.888 2.14014 112.546 2.05713 112.126 2.05713H110.17V11H107.973V0.335938H112.126C112.961 0.335938 113.676 0.487305 114.272 0.790039C114.873 1.08789 115.332 1.50049 115.649 2.02783C115.966 2.55518 116.125 3.1582 116.125 3.83691C116.125 4.52539 115.966 5.12109 115.649 5.62402C115.332 6.12695 114.873 6.51514 114.272 6.78857C113.676 7.06201 112.961 7.19873 112.126 7.19873ZM16.6328 28.2832H19.5527C19.4941 29.2402 19.2305 30.0898 18.7617 30.832C18.2995 31.5742 17.6517 32.1536 16.8184 32.5703C15.9915 32.987 14.9954 33.1953 13.8301 33.1953C12.9186 33.1953 12.1016 33.0391 11.3789 32.7266C10.6562 32.4076 10.0378 31.9518 9.52344 31.3594C9.01562 30.7669 8.62826 30.0508 8.36133 29.2109C8.0944 28.3711 7.96094 27.4303 7.96094 26.3887V25.4023C7.96094 24.3607 8.09766 23.4199 8.37109 22.5801C8.65104 21.7337 9.04818 21.0143 9.5625 20.4219C10.0833 19.8294 10.7051 19.3737 11.4277 19.0547C12.1504 18.7357 12.9577 18.5762 13.8496 18.5762C15.0345 18.5762 16.0339 18.791 16.8477 19.2207C17.668 19.6504 18.3027 20.2428 18.752 20.998C19.2077 21.7533 19.4811 22.6126 19.5723 23.5762H16.6426C16.61 23.0033 16.4961 22.5182 16.3008 22.1211C16.1055 21.7174 15.8092 21.4147 15.4121 21.2129C15.0215 21.0046 14.5007 20.9004 13.8496 20.9004C13.3613 20.9004 12.9349 20.9915 12.5703 21.1738C12.2057 21.3561 11.8997 21.6328 11.6523 22.0039C11.4049 22.375 11.2194 22.8438 11.0957 23.4102C10.9785 23.9701 10.9199 24.6276 10.9199 25.3828V26.3887C10.9199 27.1243 10.9753 27.7721 11.0859 28.332C11.1966 28.8854 11.3659 29.3542 11.5938 29.7383C11.8281 30.1159 12.1276 30.4023 12.4922 30.5977C12.8633 30.7865 13.3092 30.8809 13.8301 30.8809C14.4421 30.8809 14.9466 30.7832 15.3438 30.5879C15.7409 30.3926 16.0436 30.1029 16.252 29.7188C16.4668 29.3346 16.5938 28.8561 16.6328 28.2832ZM27.2578 21.2129L23.3906 33H20.2754L25.5586 18.7812H27.541L27.2578 21.2129ZM30.4707 33L26.5938 21.2129L26.2812 18.7812H28.2832L33.5957 33H30.4707ZM30.2949 27.707V30.002H22.7852V27.707H30.2949ZM44.0547 30.7148V33H36.8965V30.7148H44.0547ZM37.8438 18.7812V33H34.9141V18.7812H37.8438ZM55.2754 30.7148V33H47.707V30.7148H55.2754ZM48.6641 18.7812V33H45.7344V18.7812H48.6641ZM54.2891 24.5723V26.7988H47.707V24.5723H54.2891ZM55.2656 18.7812V21.0762H47.707V18.7812H55.2656ZM68.5566 18.7812V33H65.627L59.9141 23.4688V33H56.9844V18.7812H59.9141L65.6367 28.3223V18.7812H68.5566ZM75.4707 33H72.375L72.3945 30.7148H75.4707C76.2389 30.7148 76.8867 30.5423 77.4141 30.1973C77.9414 29.8457 78.3385 29.3346 78.6055 28.6641C78.8789 27.9935 79.0156 27.1829 79.0156 26.2324V25.5391C79.0156 24.8099 78.9375 24.1686 78.7812 23.6152C78.6315 23.0618 78.4069 22.5964 78.1074 22.2188C77.8079 21.8411 77.4401 21.5579 77.0039 21.3691C76.5677 21.1738 76.0664 21.0762 75.5 21.0762H72.3164V18.7812H75.5C76.4505 18.7812 77.3197 18.944 78.1074 19.2695C78.9017 19.5885 79.5885 20.0475 80.168 20.6465C80.7474 21.2454 81.1934 21.9616 81.5059 22.7949C81.8249 23.6217 81.9844 24.543 81.9844 25.5586V26.2324C81.9844 27.2415 81.8249 28.1628 81.5059 28.9961C81.1934 29.8294 80.7474 30.5456 80.168 31.1445C79.5951 31.737 78.9082 32.196 78.1074 32.5215C77.3132 32.8405 76.4342 33 75.4707 33ZM74.0352 18.7812V33H71.1055V18.7812H74.0352ZM89.6797 21.2129L85.8125 33H82.6973L87.9805 18.7812H89.9629L89.6797 21.2129ZM92.8926 33L89.0156 21.2129L88.7031 18.7812H90.7051L96.0176 33H92.8926ZM92.7168 27.707V30.002H85.207V27.707H92.7168ZM97.3359 18.7812H102.639C103.726 18.7812 104.66 18.944 105.441 19.2695C106.229 19.5951 106.835 20.0768 107.258 20.7148C107.681 21.3529 107.893 22.1374 107.893 23.0684C107.893 23.8301 107.762 24.4844 107.502 25.0312C107.248 25.5716 106.887 26.0241 106.418 26.3887C105.956 26.7467 105.412 27.0332 104.787 27.248L103.859 27.7363H99.25L99.2305 25.4512H102.658C103.173 25.4512 103.599 25.36 103.938 25.1777C104.276 24.9954 104.53 24.7415 104.699 24.416C104.875 24.0905 104.963 23.7129 104.963 23.2832C104.963 22.8275 104.878 22.4336 104.709 22.1016C104.54 21.7695 104.283 21.5156 103.938 21.3398C103.592 21.1641 103.16 21.0762 102.639 21.0762H100.266V33H97.3359V18.7812ZM105.285 33L102.043 26.6621L105.139 26.6426L108.42 32.8633V33H105.285Z" fill="#9C9C9C"/>
</svg>
