<svg width="214" height="31" viewBox="0 0 214 31" fill="none" xmlns="http://www.w3.org/2000/svg">
<path d="M2.64205 29.713V7.89483H10.0142C11.7188 7.89483 13.1179 8.18602 14.2116 8.76841C15.3054 9.34369 16.1151 10.1356 16.6406 11.1441C17.1662 12.1526 17.429 13.2997 17.429 14.5852C17.429 15.8707 17.1662 17.0106 16.6406 18.0049C16.1151 18.9992 15.3089 19.7805 14.2223 20.3487C13.1357 20.9097 11.7472 21.1903 10.0568 21.1903H4.09091V18.8039H9.97159C11.1364 18.8039 12.0739 18.6335 12.7841 18.2926C13.5014 17.9516 14.0199 17.4687 14.3395 16.8437C14.6662 16.2116 14.8295 15.4588 14.8295 14.5852C14.8295 13.7116 14.6662 12.9481 14.3395 12.2947C14.0128 11.6413 13.4908 11.137 12.7734 10.7819C12.0561 10.4197 11.108 10.2386 9.92898 10.2386H5.28409V29.713H2.64205ZM12.9119 19.9119L18.2812 29.713H15.2131L9.92898 19.9119H12.9119ZM40.2406 18.8039C40.2406 21.1051 39.8251 23.0937 38.9941 24.7698C38.1632 26.446 37.0233 27.7386 35.5744 28.6477C34.1255 29.5568 32.4707 30.0113 30.6099 30.0113C28.7491 30.0113 27.0943 29.5568 25.6454 28.6477C24.1966 27.7386 23.0566 26.446 22.2257 24.7698C21.3947 23.0937 20.9792 21.1051 20.9792 18.8039C20.9792 16.5028 21.3947 14.5141 22.2257 12.838C23.0566 11.1619 24.1966 9.86926 25.6454 8.96017C27.0943 8.05108 28.7491 7.59653 30.6099 7.59653C32.4707 7.59653 34.1255 8.05108 35.5744 8.96017C37.0233 9.86926 38.1632 11.1619 38.9941 12.838C39.8251 14.5141 40.2406 16.5028 40.2406 18.8039ZM37.6838 18.8039C37.6838 16.9147 37.3677 15.3203 36.7356 14.0205C36.1106 12.7208 35.2619 11.7372 34.1895 11.0695C33.1241 10.4019 31.9309 10.0681 30.6099 10.0681C29.2889 10.0681 28.0922 10.4019 27.0197 11.0695C25.9544 11.7372 25.1056 12.7208 24.4735 14.0205C23.8485 15.3203 23.536 16.9147 23.536 18.8039C23.536 20.6931 23.8485 22.2876 24.4735 23.5873C25.1056 24.887 25.9544 25.8707 27.0197 26.5383C28.0922 27.2059 29.2889 27.5397 30.6099 27.5397C31.9309 27.5397 33.1241 27.2059 34.1895 26.5383C35.2619 25.8707 36.1106 24.887 36.7356 23.5873C37.3677 22.2876 37.6838 20.6931 37.6838 18.8039ZM62.2399 14.713H59.5978C59.4416 13.9531 59.1681 13.2855 58.7775 12.7102C58.394 12.1349 57.9252 11.6519 57.3713 11.2613C56.8244 10.8636 56.2172 10.5653 55.5495 10.3664C54.8819 10.1676 54.1859 10.0681 53.4615 10.0681C52.1404 10.0681 50.9437 10.4019 49.8713 11.0695C48.8059 11.7372 47.9572 12.7208 47.3251 14.0205C46.7001 15.3203 46.3876 16.9147 46.3876 18.8039C46.3876 20.6931 46.7001 22.2876 47.3251 23.5873C47.9572 24.887 48.8059 25.8707 49.8713 26.5383C50.9437 27.2059 52.1404 27.5397 53.4615 27.5397C54.1859 27.5397 54.8819 27.4403 55.5495 27.2414C56.2172 27.0426 56.8244 26.7478 57.3713 26.3572C57.9252 25.9595 58.394 25.473 58.7775 24.8977C59.1681 24.3153 59.4416 23.6477 59.5978 22.8948H62.2399C62.041 24.0099 61.6788 25.0078 61.1532 25.8884C60.6277 26.7691 59.9743 27.5184 59.193 28.1363C58.4118 28.7471 57.5346 29.2123 56.5616 29.5319C55.5957 29.8515 54.5623 30.0113 53.4615 30.0113C51.6007 30.0113 49.9458 29.5568 48.497 28.6477C47.0481 27.7386 45.9082 26.446 45.0772 24.7698C44.2463 23.0937 43.8308 21.1051 43.8308 18.8039C43.8308 16.5028 44.2463 14.5141 45.0772 12.838C45.9082 11.1619 47.0481 9.86926 48.497 8.96017C49.9458 8.05108 51.6007 7.59653 53.4615 7.59653C54.5623 7.59653 55.5957 7.75634 56.5616 8.07594C57.5346 8.39554 58.4118 8.86429 59.193 9.48219C59.9743 10.093 60.6277 10.8387 61.1532 11.7194C61.6788 12.593 62.041 13.5909 62.2399 14.713ZM66.5092 29.713V7.89483H69.1513V18.7187H69.407L79.2081 7.89483H82.6598L73.4979 17.7386L82.6598 29.713H79.4638L71.8786 19.571L69.1513 22.6391V29.713H66.5092ZM86.0795 29.713V7.89483H99.2472V10.2386H88.7216V17.6107H98.5653V19.9545H88.7216V27.3693H99.4176V29.713H86.0795ZM102.816 10.2386V7.89483H119.18V10.2386H112.319V29.713H109.677V10.2386H102.816Z" fill="#959595"/>
<path d="M122.512 29.713V7.89483H131.119C132.774 7.89483 134.184 8.21088 135.349 8.84298C136.514 9.46798 137.401 10.338 138.012 11.4531C138.63 12.561 138.939 13.8394 138.939 15.2883C138.939 16.7372 138.627 18.0156 138.002 19.1235C137.377 20.2315 136.471 21.0944 135.285 21.7123C134.106 22.3302 132.678 22.6391 131.002 22.6391H125.516V18.9424H130.257C131.144 18.9424 131.876 18.7897 132.451 18.4843C133.034 18.1718 133.467 17.7421 133.751 17.1953C134.042 16.6413 134.188 16.0056 134.188 15.2883C134.188 14.5639 134.042 13.9318 133.751 13.392C133.467 12.8451 133.034 12.4225 132.451 12.1242C131.869 11.8188 131.13 11.6661 130.235 11.6661H127.124V29.713H122.512ZM143.176 29.713H138.233L145.765 7.89483H151.71L159.231 29.713H154.288L148.823 12.8806H148.652L143.176 29.713ZM142.868 21.137H154.544V24.7379H142.868V21.137ZM158.352 7.89483H163.519L168.494 17.2911H168.707L173.683 7.89483H178.849L170.891 21.9999V29.713H166.31V21.9999L158.352 7.89483Z" fill="#9C9C9C"/>
<path fill-rule="evenodd" clip-rule="evenodd" d="M193.334 21.8578L193.33 21.8631L193.326 21.8686C193.121 22.1719 192.66 22.261 192.3 21.996C192.012 21.7838 191.925 21.3111 192.171 20.9374C192.537 20.4509 192.803 19.8821 192.978 19.3261C193.16 18.7473 193.244 18.0895 193.241 17.4444C193.238 16.7993 193.146 16.1425 192.958 15.5657C192.778 15.0116 192.506 14.4458 192.135 13.9634C191.886 13.5925 191.968 13.1188 192.254 12.9035C192.611 12.6345 193.072 12.7185 193.281 13.0195L193.285 13.0249L193.289 13.0302C193.751 13.6651 194.13 14.3704 194.356 15.0625C194.595 15.8766 194.746 16.6641 194.75 17.436C194.754 18.2483 194.68 19.0171 194.394 19.774C194.082 20.5982 193.781 21.2299 193.334 21.8578ZM196.674 23.3654L196.683 23.3521L196.692 23.3383C197.716 21.6286 198.306 19.5655 198.295 17.4163C198.284 15.2676 197.673 13.2117 196.632 11.5138C196.406 11.141 196.508 10.7002 196.888 10.414C197.143 10.2218 197.623 10.2898 197.907 10.6871C199.083 12.6302 199.793 14.9792 199.805 17.4079C199.818 19.9196 199.132 22.1923 197.976 24.1497C197.708 24.5334 197.299 24.6409 196.946 24.4234C196.563 24.1311 196.493 23.6332 196.674 23.3654ZM202.669 8.133L202.679 8.15376L202.691 8.1736C204.283 10.8792 205.168 14.0001 205.186 17.3781C205.203 20.7545 204.351 23.8837 202.787 26.606C202.548 27.0076 202.143 27.1208 201.733 26.9219C201.359 26.6683 201.259 26.2481 201.454 25.8236C202.784 23.363 203.61 20.4633 203.595 17.3869C203.579 14.3242 202.81 11.4292 201.365 8.96835C201.169 8.54816 201.266 8.12968 201.635 7.87321C202.08 7.65163 202.514 7.81404 202.669 8.133ZM207.385 5.55812L207.391 5.5723L207.399 5.58606C209.329 9.06228 210.463 13.0366 210.485 17.3487C210.507 21.6563 209.416 25.6392 207.525 29.1341C207.285 29.5311 206.882 29.6423 206.474 29.4443C206.102 29.1915 206.001 28.7731 206.194 28.3501C208.015 25.1108 208.996 21.3579 208.975 17.3571C208.955 13.3459 207.849 9.60756 206.084 6.40022C205.862 5.93202 206.018 5.47346 206.327 5.31041C206.78 5.07107 207.227 5.23354 207.385 5.55812Z" fill="#959595"/>
</svg>
