<svg width="53" height="36" viewBox="0 0 53 36" fill="none" xmlns="http://www.w3.org/2000/svg">
<path d="M22.5011 24.8558C22.5011 24.9532 22.389 25.0312 22.2478 25.0312C22.0871 25.0458 21.975 24.9678 21.975 24.8558C21.975 24.7584 22.0871 24.6805 22.2283 24.6805C22.3744 24.6659 22.5011 24.7438 22.5011 24.8558ZM20.9863 24.6366C20.9522 24.734 21.0496 24.8461 21.1957 24.8753C21.3223 24.924 21.4685 24.8753 21.4977 24.7779C21.5269 24.6805 21.4344 24.5684 21.2882 24.5246C21.1616 24.4905 21.0204 24.5392 20.9863 24.6366ZM23.1392 24.5538C22.9979 24.5879 22.9005 24.6805 22.9151 24.7925C22.9297 24.8899 23.0563 24.9532 23.2025 24.9191C23.3437 24.885 23.4411 24.7925 23.4265 24.6951C23.4119 24.6025 23.2804 24.5392 23.1392 24.5538ZM26.3441 5.88889C19.5883 5.88889 14.4204 11.0178 14.4204 17.7737C14.4204 23.1754 17.8202 27.7978 22.6764 29.4246C23.2999 29.5367 23.5191 29.1519 23.5191 28.8353C23.5191 28.5333 23.5045 26.8675 23.5045 25.8446C23.5045 25.8446 20.0949 26.5752 19.3789 24.3931C19.3789 24.3931 18.8236 22.9757 18.0248 22.6104C18.0248 22.6104 16.9094 21.8457 18.1027 21.8603C18.1027 21.8603 19.3156 21.9577 19.9829 23.1169C21.0496 24.9971 22.8372 24.4564 23.5337 24.1349C23.6457 23.3556 23.9623 22.8149 24.313 22.4935C21.5902 22.1915 18.8431 21.797 18.8431 17.1112C18.8431 15.7718 19.2133 15.0996 19.9926 14.2423C19.866 13.9257 19.452 12.6203 20.1193 10.935C21.1372 10.6184 23.4801 12.2502 23.4801 12.2502C24.4543 11.9774 25.5015 11.8361 26.539 11.8361C27.5765 11.8361 28.6237 11.9774 29.5978 12.2502C29.5978 12.2502 31.9407 10.6136 32.9587 10.935C33.626 12.6252 33.212 13.9257 33.0853 14.2423C33.8647 15.1045 34.342 15.7766 34.342 17.1112C34.342 21.8116 31.4731 22.1866 28.7503 22.4935C29.1984 22.8783 29.5784 23.6089 29.5784 24.7535C29.5784 26.395 29.5637 28.4261 29.5637 28.8255C29.5637 29.1421 29.7878 29.5269 30.4064 29.4149C35.2772 27.7978 38.5796 23.1754 38.5796 17.7737C38.5796 11.0178 33.0999 5.88889 26.3441 5.88889ZM19.1548 22.6883C19.0915 22.737 19.1061 22.849 19.1889 22.9416C19.2669 23.0195 19.3789 23.0536 19.4422 22.9903C19.5055 22.9416 19.4909 22.8296 19.4081 22.737C19.3302 22.6591 19.2182 22.625 19.1548 22.6883ZM18.6288 22.2938C18.5947 22.3571 18.6434 22.435 18.7408 22.4837C18.8187 22.5324 18.9162 22.5178 18.9503 22.4496C18.9844 22.3863 18.9356 22.3084 18.8382 22.2597C18.7408 22.2305 18.6629 22.2451 18.6288 22.2938ZM20.2069 24.0278C20.129 24.0911 20.1582 24.2372 20.2702 24.3298C20.3823 24.4418 20.5235 24.4564 20.5868 24.3785C20.6502 24.3152 20.6209 24.169 20.5235 24.0765C20.4164 23.9645 20.2702 23.9498 20.2069 24.0278ZM19.6517 23.3118C19.5737 23.3605 19.5737 23.4871 19.6517 23.5992C19.7296 23.7112 19.8611 23.7599 19.9244 23.7112C20.0024 23.6479 20.0024 23.5212 19.9244 23.4092C19.8562 23.2972 19.7296 23.2485 19.6517 23.3118Z" fill="#2893A4"/>
</svg>
