<svg width="238" height="36" viewBox="0 0 238 36" fill="none" xmlns="http://www.w3.org/2000/svg">
<path d="M17.008 35.672C11.6 35.672 7.47202 34.168 4.62402 31.16C1.80802 28.152 0.400024 23.88 0.400024 18.344C0.400024 15.592 0.832024 13.144 1.69602 11C2.56002 8.82402 3.74402 7.00002 5.24802 5.52802C6.75203 4.02402 8.54403 2.88802 10.624 2.12002C12.704 1.35202 14.96 0.968018 17.392 0.968018C18.8 0.968018 20.08 1.08002 21.232 1.30402C22.384 1.49602 23.392 1.73602 24.256 2.02402C25.12 2.28002 25.84 2.55202 26.416 2.84002C26.992 3.12802 27.408 3.35202 27.664 3.51202L25.504 9.56002C24.48 9.01602 23.28 8.55202 21.904 8.16802C20.56 7.78402 19.024 7.59202 17.296 7.59202C16.144 7.59202 15.008 7.78402 13.888 8.16802C12.8 8.55202 11.824 9.17602 10.96 10.04C10.128 10.872 9.45603 11.96 8.94403 13.304C8.43202 14.648 8.17602 16.28 8.17602 18.2C8.17602 19.736 8.33602 21.176 8.65602 22.52C9.00802 23.832 9.55202 24.968 10.288 25.928C11.056 26.888 12.048 27.656 13.264 28.232C14.48 28.776 15.952 29.048 17.68 29.048C18.768 29.048 19.744 28.984 20.608 28.856C21.472 28.728 22.24 28.584 22.912 28.424C23.584 28.232 24.176 28.024 24.688 27.8C25.2 27.576 25.664 27.368 26.08 27.176L28.144 33.176C27.088 33.816 25.6 34.392 23.68 34.904C21.76 35.416 19.536 35.672 17.008 35.672Z" fill="#080808"/>
<path d="M40.618 31.208C40.618 32.648 40.154 33.752 39.226 34.52C38.33 35.256 37.306 35.624 36.154 35.624C35.002 35.624 33.962 35.256 33.034 34.52C32.138 33.752 31.69 32.648 31.69 31.208C31.69 29.768 32.138 28.68 33.034 27.944C33.962 27.176 35.002 26.792 36.154 26.792C37.306 26.792 38.33 27.176 39.226 27.944C40.154 28.68 40.618 29.768 40.618 31.208Z" fill="#080808"/>
<path d="M73.6578 7.49602C70.1698 7.49602 67.6418 8.47202 66.0738 10.424C64.5378 12.344 63.7698 14.984 63.7698 18.344C63.7698 19.976 63.9618 21.464 64.3458 22.808C64.7298 24.12 65.3058 25.256 66.0738 26.216C66.8418 27.176 67.8018 27.928 68.9538 28.472C70.1058 28.984 71.4498 29.24 72.9858 29.24C73.8178 29.24 74.5218 29.224 75.0978 29.192C75.7058 29.16 76.2338 29.096 76.6818 29V17.432H84.1698V33.896C83.2738 34.248 81.8338 34.616 79.8498 35C77.8658 35.416 75.4178 35.624 72.5058 35.624C70.0098 35.624 67.7378 35.24 65.6898 34.472C63.6738 33.704 61.9458 32.584 60.5058 31.112C59.0658 29.64 57.9458 27.832 57.1458 25.688C56.3778 23.544 55.9938 21.096 55.9938 18.344C55.9938 15.56 56.4258 13.096 57.2898 10.952C58.1538 8.80802 59.3378 7.00002 60.8418 5.52802C62.3458 4.02402 64.1058 2.88802 66.1218 2.12002C68.1698 1.35202 70.3458 0.968018 72.6498 0.968018C74.2178 0.968018 75.6258 1.08002 76.8738 1.30402C78.1538 1.49602 79.2418 1.73602 80.1378 2.02402C81.0658 2.28002 81.8178 2.55202 82.3938 2.84002C83.0018 3.12802 83.4338 3.35202 83.6898 3.51202L81.5298 9.51202C80.5058 8.96802 79.3218 8.50402 77.9778 8.12002C76.6658 7.70402 75.2258 7.49602 73.6578 7.49602Z" fill="#080808"/>
<path d="M112.209 34.136C110.993 34.488 109.425 34.808 107.505 35.096C105.585 35.416 103.569 35.576 101.457 35.576C99.3129 35.576 97.5209 35.288 96.0809 34.712C94.6729 34.136 93.5529 33.336 92.7209 32.312C91.8889 31.256 91.2969 30.008 90.9449 28.568C90.5929 27.128 90.4169 25.544 90.4169 23.816V9.75202H97.5689V22.952C97.5689 25.256 97.8729 26.92 98.4809 27.944C99.0889 28.968 100.225 29.48 101.889 29.48C102.401 29.48 102.945 29.464 103.521 29.432C104.097 29.368 104.609 29.304 105.057 29.24V9.75202H112.209V34.136Z" fill="#080808"/>
<path d="M126.171 29.864C127.483 29.864 128.411 29.736 128.955 29.48C129.499 29.224 129.771 28.728 129.771 27.992C129.771 27.416 129.419 26.92 128.715 26.504C128.011 26.056 126.939 25.56 125.499 25.016C124.379 24.6 123.355 24.168 122.427 23.72C121.531 23.272 120.763 22.744 120.123 22.136C119.483 21.496 118.987 20.744 118.635 19.88C118.283 19.016 118.107 17.976 118.107 16.76C118.107 14.392 118.987 12.52 120.747 11.144C122.507 9.76802 124.923 9.08002 127.995 9.08002C129.531 9.08002 131.003 9.22402 132.411 9.51202C133.819 9.76802 134.939 10.056 135.771 10.376L134.523 15.944C133.691 15.656 132.779 15.4 131.787 15.176C130.827 14.952 129.739 14.84 128.523 14.84C126.283 14.84 125.163 15.464 125.163 16.712C125.163 17 125.211 17.256 125.307 17.48C125.403 17.704 125.595 17.928 125.883 18.152C126.171 18.344 126.555 18.568 127.035 18.824C127.547 19.048 128.187 19.304 128.955 19.592C130.523 20.168 131.819 20.744 132.843 21.32C133.867 21.864 134.667 22.472 135.243 23.144C135.851 23.784 136.267 24.504 136.491 25.304C136.747 26.104 136.875 27.032 136.875 28.088C136.875 30.584 135.931 32.472 134.043 33.752C132.187 35.032 129.547 35.672 126.123 35.672C123.883 35.672 122.011 35.48 120.507 35.096C119.035 34.712 118.011 34.392 117.435 34.136L118.635 28.328C119.851 28.808 121.099 29.192 122.379 29.48C123.659 29.736 124.923 29.864 126.171 29.864Z" fill="#080808"/>
<path d="M141.979 3.46402L149.131 2.31202V9.75202H157.723V15.704H149.131V24.584C149.131 26.088 149.387 27.288 149.899 28.184C150.443 29.08 151.515 29.528 153.115 29.528C153.883 29.528 154.667 29.464 155.467 29.336C156.299 29.176 157.051 28.968 157.723 28.712L158.731 34.28C157.867 34.632 156.907 34.936 155.851 35.192C154.795 35.448 153.499 35.576 151.963 35.576C150.011 35.576 148.395 35.32 147.115 34.808C145.835 34.264 144.811 33.528 144.043 32.6C143.275 31.64 142.731 30.488 142.411 29.144C142.123 27.8 141.979 26.312 141.979 24.68V3.46402Z" fill="#080808"/>
<path d="M172.258 30.008C172.962 30.008 173.634 29.992 174.274 29.96C174.914 29.928 175.426 29.88 175.81 29.816V24.392C175.522 24.328 175.09 24.264 174.514 24.2C173.938 24.136 173.41 24.104 172.93 24.104C172.258 24.104 171.618 24.152 171.01 24.248C170.434 24.312 169.922 24.456 169.474 24.68C169.026 24.904 168.674 25.208 168.418 25.592C168.162 25.976 168.034 26.456 168.034 27.032C168.034 28.152 168.402 28.936 169.138 29.384C169.906 29.8 170.946 30.008 172.258 30.008ZM171.682 9.08002C173.794 9.08002 175.554 9.32002 176.962 9.80002C178.37 10.28 179.49 10.968 180.322 11.864C181.186 12.76 181.794 13.848 182.146 15.128C182.498 16.408 182.674 17.832 182.674 19.4V34.28C181.65 34.504 180.226 34.76 178.402 35.048C176.578 35.368 174.37 35.528 171.778 35.528C170.146 35.528 168.658 35.384 167.314 35.096C166.002 34.808 164.866 34.344 163.906 33.704C162.946 33.032 162.21 32.168 161.698 31.112C161.186 30.056 160.93 28.76 160.93 27.224C160.93 25.752 161.218 24.504 161.794 23.48C162.402 22.456 163.202 21.64 164.194 21.032C165.186 20.424 166.322 19.992 167.602 19.736C168.882 19.448 170.21 19.304 171.586 19.304C172.514 19.304 173.33 19.352 174.034 19.448C174.77 19.512 175.362 19.608 175.81 19.736V19.064C175.81 17.848 175.442 16.872 174.706 16.136C173.97 15.4 172.69 15.032 170.866 15.032C169.65 15.032 168.45 15.128 167.266 15.32C166.082 15.48 165.058 15.72 164.194 16.04L163.282 10.28C163.698 10.152 164.21 10.024 164.818 9.89602C165.458 9.73602 166.146 9.60802 166.882 9.51202C167.618 9.38402 168.386 9.28802 169.186 9.22402C170.018 9.12802 170.85 9.08002 171.682 9.08002Z" fill="#080808"/>
<path d="M195.396 35C193.764 31.8 192.1 28.056 190.404 23.768C188.74 19.48 187.156 14.808 185.652 9.75202H193.236C193.556 11 193.924 12.36 194.34 13.832C194.788 15.272 195.236 16.744 195.684 18.248C196.164 19.72 196.628 21.16 197.076 22.568C197.556 23.976 198.02 25.256 198.468 26.408C198.884 25.256 199.332 23.976 199.812 22.568C200.292 21.16 200.756 19.72 201.204 18.248C201.684 16.744 202.132 15.272 202.548 13.832C202.996 12.36 203.38 11 203.7 9.75202H211.092C209.588 14.808 207.988 19.48 206.292 23.768C204.628 28.056 202.98 31.8 201.348 35H195.396Z" fill="#080808"/>
<path d="M237.882 22.328C237.882 24.312 237.594 26.136 237.018 27.8C236.442 29.432 235.61 30.84 234.522 32.024C233.434 33.176 232.122 34.072 230.586 34.712C229.082 35.352 227.386 35.672 225.498 35.672C223.642 35.672 221.946 35.352 220.41 34.712C218.906 34.072 217.61 33.176 216.522 32.024C215.434 30.84 214.586 29.432 213.978 27.8C213.37 26.136 213.066 24.312 213.066 22.328C213.066 20.344 213.37 18.536 213.978 16.904C214.618 15.272 215.482 13.88 216.57 12.728C217.69 11.576 219.002 10.68 220.506 10.04C222.042 9.40002 223.706 9.08002 225.498 9.08002C227.322 9.08002 228.986 9.40002 230.49 10.04C232.026 10.68 233.338 11.576 234.426 12.728C235.514 13.88 236.362 15.272 236.97 16.904C237.578 18.536 237.882 20.344 237.882 22.328ZM230.586 22.328C230.586 20.12 230.138 18.392 229.242 17.144C228.378 15.864 227.13 15.224 225.498 15.224C223.866 15.224 222.602 15.864 221.706 17.144C220.81 18.392 220.362 20.12 220.362 22.328C220.362 24.536 220.81 26.296 221.706 27.608C222.602 28.888 223.866 29.528 225.498 29.528C227.13 29.528 228.378 28.888 229.242 27.608C230.138 26.296 230.586 24.536 230.586 22.328Z" fill="#080808"/>
</svg>
