<svg width="39" height="194" viewBox="0 0 39 194" fill="none" xmlns="http://www.w3.org/2000/svg">
<path d="M22.4063 95.7715C22.0742 95.7715 21.7813 95.8236 21.5273 95.9277C21.2669 96.0254 21.0326 96.2012 20.8242 96.4551C20.6159 96.7025 20.4173 97.0475 20.2285 97.4902C20.0397 97.9264 19.8477 98.4798 19.6523 99.1504C19.444 99.8535 19.2129 100.488 18.959 101.055C18.6986 101.621 18.4023 102.106 18.0703 102.51C17.7383 102.913 17.3574 103.223 16.9277 103.438C16.498 103.652 16.0065 103.76 15.4531 103.76C14.8997 103.76 14.3887 103.646 13.9199 103.418C13.4512 103.19 13.0443 102.865 12.6992 102.441C12.3477 102.012 12.0742 101.501 11.8789 100.908C11.6836 100.316 11.5859 99.6549 11.5859 98.9258C11.5859 97.8581 11.791 96.9531 12.2012 96.2109C12.6048 95.4622 13.1354 94.8926 13.793 94.502C14.444 94.1113 15.1406 93.916 15.8828 93.916L15.8828 95.791C15.349 95.791 14.877 95.9049 14.4668 96.1328C14.0501 96.3607 13.7246 96.7057 13.4902 97.168C13.2494 97.6302 13.1289 98.2161 13.1289 98.9258C13.1289 99.5964 13.2298 100.15 13.4316 100.586C13.6335 101.022 13.9069 101.348 14.252 101.562C14.597 101.771 14.9909 101.875 15.4336 101.875C15.7331 101.875 16.0065 101.813 16.2539 101.689C16.4948 101.559 16.7194 101.361 16.9277 101.094C17.1361 100.82 17.3281 100.475 17.5039 100.059C17.6797 99.6354 17.849 99.1309 18.0117 98.5449C18.2396 97.7376 18.4935 97.041 18.7734 96.4551C19.0534 95.8691 19.3691 95.3874 19.7207 95.0098C20.0658 94.6257 20.4596 94.3424 20.9023 94.1602C21.3385 93.9714 21.8333 93.877 22.3867 93.877C22.9661 93.877 23.4902 93.9941 23.959 94.2285C24.4277 94.4629 24.8281 94.7982 25.1602 95.2344C25.4922 95.6706 25.7494 96.1947 25.9316 96.8066C26.1074 97.4121 26.1953 98.0892 26.1953 98.8379C26.1953 99.4954 26.1042 100.143 25.9219 100.781C25.7396 101.413 25.4661 101.989 25.1016 102.51C24.737 103.024 24.2878 103.437 23.7539 103.75C23.2135 104.056 22.5885 104.209 21.8789 104.209V102.334C22.3672 102.334 22.7871 102.24 23.1387 102.051C23.4837 101.862 23.7702 101.605 23.998 101.279C24.2259 100.947 24.3952 100.573 24.5059 100.156C24.61 99.7331 24.6621 99.2936 24.6621 98.8379C24.6621 98.1803 24.571 97.6237 24.3887 97.168C24.2064 96.7122 23.946 96.3672 23.6074 96.1328C23.2689 95.8919 22.8685 95.7715 22.4063 95.7715Z" fill="#B5B5B5"/>
<path d="M24.7109 87.5195C24.7109 87.0898 24.623 86.6927 24.4473 86.3281C24.2715 85.9635 24.0306 85.6641 23.7246 85.4297C23.4121 85.1953 23.0573 85.0618 22.6602 85.0293V83.3105C23.2852 83.3431 23.8678 83.5547 24.4082 83.9453C24.9421 84.3294 25.375 84.834 25.707 85.459C26.0326 86.084 26.1953 86.7708 26.1953 87.5195C26.1953 88.3138 26.0553 89.0072 25.7754 89.5996C25.4954 90.1855 25.1113 90.6738 24.623 91.0645C24.1348 91.4486 23.5749 91.7383 22.9434 91.9336C22.3053 92.1224 21.6315 92.2168 20.9219 92.2168H20.5117C19.8021 92.2168 19.1315 92.1224 18.5 91.9336C17.862 91.7383 17.2988 91.4486 16.8105 91.0645C16.3223 90.6738 15.9382 90.1855 15.6582 89.5996C15.3783 89.0072 15.2383 88.3138 15.2383 87.5195C15.2383 86.6927 15.4076 85.9701 15.7461 85.3516C16.0781 84.7331 16.5339 84.248 17.1133 83.8965C17.6862 83.5384 18.3372 83.3431 19.0664 83.3105V85.0293C18.6302 85.0618 18.2363 85.1855 17.8848 85.4004C17.5332 85.6087 17.2533 85.8952 17.0449 86.2598C16.8301 86.6178 16.7227 87.0378 16.7227 87.5195C16.7227 88.0729 16.8333 88.5384 17.0547 88.916C17.2695 89.2871 17.5625 89.5833 17.9336 89.8047C18.2982 90.0195 18.7051 90.1758 19.1543 90.2734C19.597 90.3646 20.0495 90.4102 20.5117 90.4102H20.9219C21.3841 90.4102 21.8398 90.3646 22.2891 90.2734C22.7383 90.1823 23.1452 90.0293 23.5098 89.8145C23.8744 89.5931 24.1673 89.2969 24.3887 88.9258C24.6035 88.5482 24.7109 88.0794 24.7109 87.5195Z" fill="#B5B5B5"/>
<path d="M17.0938 79.4727H26V81.2793H15.4336V79.5215L17.0938 79.4727ZM15.375 76.1719L17.0547 76.1816C17.0221 76.3314 17.0026 76.4746 16.9961 76.6113C16.9831 76.7415 16.9766 76.8913 16.9766 77.0605C16.9766 77.4772 17.0417 77.8451 17.1719 78.1641C17.3021 78.4831 17.4844 78.7533 17.7188 78.9746C17.9531 79.196 18.2331 79.3717 18.5586 79.502C18.8776 79.6257 19.2292 79.707 19.6133 79.7461L19.9063 80.2539C19.2682 80.2539 18.6693 80.1921 18.1094 80.0684C17.5495 79.9382 17.0547 79.7396 16.625 79.4727C16.1888 79.2057 15.8503 78.8672 15.6094 78.457C15.362 78.0404 15.2383 77.5456 15.2383 76.9727C15.2383 76.8424 15.2546 76.6927 15.2871 76.5234C15.3132 76.3542 15.3424 76.237 15.375 76.1719Z" fill="#B5B5B5"/>
<path d="M20.834 75.1758H20.6094C19.8477 75.1758 19.1413 75.0651 18.4902 74.8438C17.8327 74.6224 17.263 74.3034 16.7813 73.8867C16.293 73.4701 15.9154 72.9655 15.6484 72.373C15.375 71.7806 15.2383 71.1165 15.2383 70.3809C15.2383 69.6387 15.375 68.9714 15.6484 68.3789C15.9154 67.7799 16.293 67.2721 16.7813 66.8555C17.263 66.4323 17.8327 66.11 18.4902 65.8887C19.1413 65.6673 19.8477 65.5566 20.6094 65.5566H20.834C21.5957 65.5566 22.3021 65.6673 22.9531 65.8887C23.6042 66.11 24.1738 66.4323 24.6621 66.8555C25.1439 67.2721 25.5215 67.7767 25.7949 68.3691C26.0618 68.9551 26.1953 69.6191 26.1953 70.3613C26.1953 71.1035 26.0618 71.7708 25.7949 72.3633C25.5215 72.9557 25.1439 73.4635 24.6621 73.8867C24.1738 74.3034 23.6042 74.6224 22.9531 74.8438C22.3021 75.0651 21.5957 75.1758 20.834 75.1758ZM20.6094 73.3691H20.834C21.3613 73.3691 21.8594 73.3073 22.3281 73.1836C22.7904 73.0599 23.2005 72.8743 23.5586 72.627C23.9167 72.373 24.1999 72.0573 24.4082 71.6797C24.61 71.3021 24.7109 70.8626 24.7109 70.3613C24.7109 69.8665 24.61 69.4336 24.4082 69.0625C24.1999 68.6849 23.9167 68.3724 23.5586 68.125C23.2005 67.8776 22.7904 67.6921 22.3281 67.5684C21.8594 67.4382 21.3613 67.373 20.834 67.373H20.6094C20.0885 67.373 19.597 67.4382 19.1348 67.5684C18.666 67.6921 18.2526 67.8809 17.8945 68.1348C17.5299 68.3822 17.2435 68.6947 17.0352 69.0723C16.8268 69.4434 16.7227 69.8796 16.7227 70.3809C16.7227 70.8757 16.8268 71.3118 17.0352 71.6895C17.2435 72.0605 17.5299 72.373 17.8945 72.627C18.2526 72.8743 18.666 73.0599 19.1348 73.1836C19.597 73.3073 20.0885 73.3691 20.6094 73.3691Z" fill="#B5B5B5"/>
<path d="M11 61.3281H26V63.1445H11L11 61.3281Z" fill="#B5B5B5"/>
<path d="M11 56.4648H26V58.2812H11L11 56.4648Z" fill="#B5B5B5"/>
<path d="M26 44.4824L26 47.4512L24.4668 47.4316L24.4668 44.4824C24.4668 43.4668 24.2552 42.6204 23.832 41.9434C23.4023 41.2663 22.8034 40.7585 22.0352 40.4199C21.2604 40.0749 20.3555 39.9023 19.3203 39.9023H18.4512C17.6374 39.9023 16.9147 40 16.2832 40.1953C15.6452 40.3906 15.1081 40.6771 14.6719 41.0547C14.2292 41.4323 13.8939 41.8945 13.666 42.4414C13.4382 42.9818 13.3242 43.6035 13.3242 44.3066V47.5098H11.7812L11.7812 44.3066C11.7812 43.3757 11.9375 42.526 12.25 41.7578C12.556 40.9896 13.002 40.3288 13.5879 39.7754C14.1673 39.2155 14.8704 38.7858 15.6973 38.4863C16.5176 38.1868 17.4421 38.0371 18.4707 38.0371H19.3203C20.349 38.0371 21.2767 38.1868 22.1035 38.4863C22.9238 38.7858 23.6237 39.2188 24.2031 39.7852C24.7826 40.3451 25.2285 41.0221 25.541 41.8164C25.847 42.6042 26 43.4928 26 44.4824ZM11.7812 46.4453H26V48.3301H11.7812L11.7812 46.4453Z" fill="#B5B5B5"/>
<path d="M20.834 35.957H20.6094C19.8477 35.957 19.1413 35.8464 18.4902 35.625C17.8327 35.4036 17.263 35.0846 16.7812 34.668C16.293 34.2513 15.9154 33.7467 15.6484 33.1543C15.375 32.5618 15.2383 31.8978 15.2383 31.1621C15.2383 30.4199 15.375 29.7526 15.6484 29.1602C15.9154 28.5612 16.293 28.0534 16.7812 27.6367C17.263 27.2135 17.8327 26.8913 18.4902 26.6699C19.1413 26.4486 19.8477 26.3379 20.6094 26.3379H20.834C21.5957 26.3379 22.3021 26.4486 22.9531 26.6699C23.6042 26.8913 24.1738 27.2135 24.6621 27.6367C25.1439 28.0534 25.5215 28.5579 25.7949 29.1504C26.0618 29.7363 26.1953 30.4004 26.1953 31.1426C26.1953 31.8848 26.0618 32.5521 25.7949 33.1445C25.5215 33.737 25.1439 34.2448 24.6621 34.668C24.1738 35.0846 23.6042 35.4036 22.9531 35.625C22.3021 35.8464 21.5957 35.957 20.834 35.957ZM20.6094 34.1504H20.834C21.3613 34.1504 21.8594 34.0885 22.3281 33.9648C22.7904 33.8411 23.2005 33.6556 23.5586 33.4082C23.9167 33.1543 24.1999 32.8385 24.4082 32.4609C24.61 32.0833 24.7109 31.6439 24.7109 31.1426C24.7109 30.6478 24.61 30.2148 24.4082 29.8438C24.1999 29.4661 23.9167 29.1536 23.5586 28.9062C23.2005 28.6589 22.7904 28.4733 22.3281 28.3496C21.8594 28.2194 21.3613 28.1543 20.834 28.1543H20.6094C20.0885 28.1543 19.597 28.2194 19.1348 28.3496C18.666 28.4733 18.2526 28.6621 17.8945 28.916C17.5299 29.1634 17.2435 29.4759 17.0352 29.8535C16.8268 30.2246 16.7227 30.6608 16.7227 31.1621C16.7227 31.6569 16.8268 32.0931 17.0352 32.4707C17.2435 32.8418 17.5299 33.1543 17.8945 33.4082C18.2526 33.6556 18.666 33.8411 19.1348 33.9648C19.597 34.0885 20.0885 34.1504 20.6094 34.1504Z" fill="#B5B5B5"/>
<path d="M24.125 21.3965L15.4336 18.6816L15.4336 17.4902L17.1621 17.7246L26 20.4883V21.6504L24.125 21.3965ZM15.4336 23.2227L24.2227 20.9082L26 20.7422V21.9629L15.4336 25.0293V23.2227ZM24.1543 14.8926L15.4336 12.6855V10.8887L26 13.9551V15.166L24.1543 14.8926ZM15.4336 17.2266L23.9785 14.5703L26 14.2676V15.4199L17.1426 18.2617L15.4336 18.4961L15.4336 17.2266Z" fill="#B5B5B5"/>
<path d="M17.6895 7.22656L26 7.22656V9.0332H15.4336L15.4336 7.32422L17.6895 7.22656ZM20.3164 7.65625L20.2871 8.4082C19.5645 8.40169 18.8971 8.29427 18.2852 8.08594C17.6667 7.8776 17.1296 7.58464 16.6738 7.20703C16.2181 6.82943 15.8665 6.38021 15.6191 5.85938C15.3652 5.33203 15.2383 4.74935 15.2383 4.11133C15.2383 3.5905 15.3099 3.12175 15.4531 2.70508C15.5898 2.28841 15.8112 1.93359 16.1172 1.64063C16.4232 1.34115 16.8203 1.11328 17.3086 0.957032C17.7904 0.800782 18.3796 0.722657 19.0762 0.722657L26 0.722656L26 2.53906L19.0566 2.53906C18.5033 2.53906 18.0605 2.62044 17.7285 2.7832C17.39 2.94596 17.1458 3.18359 16.9961 3.49609C16.8398 3.80859 16.7617 4.19271 16.7617 4.64844C16.7617 5.09766 16.8561 5.50781 17.0449 5.87891C17.2337 6.24349 17.4941 6.55925 17.8262 6.82617C18.1582 7.08659 18.5391 7.29167 18.9687 7.44141C19.3919 7.58464 19.8411 7.65625 20.3164 7.65625Z" fill="#B5B5B5"/>
<g filter="url(#filter0_d_24_7)">
<rect x="3.43335" y="126" width="32.1" height="65" rx="16.05" stroke="#B5B5B5" stroke-width="2" shape-rendering="crispEdges"/>
</g>
<g filter="url(#filter1_d_24_7)">
<rect x="18.9668" y="138" width="2.06667" height="13" fill="#C4C4C4"/>
</g>
<defs>
<filter id="filter0_d_24_7" x="0.43335" y="123" width="38.1001" height="71" filterUnits="userSpaceOnUse" color-interpolation-filters="sRGB">
<feFlood flood-opacity="0" result="BackgroundImageFix"/>
<feColorMatrix in="SourceAlpha" type="matrix" values="0 0 0 0 0 0 0 0 0 0 0 0 0 0 0 0 0 0 127 0" result="hardAlpha"/>
<feOffset/>
<feGaussianBlur stdDeviation="1"/>
<feComposite in2="hardAlpha" operator="out"/>
<feColorMatrix type="matrix" values="0 0 0 0 0 0 0 0 0 0 0 0 0 0 0 0 0 0 0.2 0"/>
<feBlend mode="normal" in2="BackgroundImageFix" result="effect1_dropShadow_24_7"/>
<feBlend mode="normal" in="SourceGraphic" in2="effect1_dropShadow_24_7" result="shape"/>
</filter>
<filter id="filter1_d_24_7" x="16.9668" y="136" width="6.06665" height="17" filterUnits="userSpaceOnUse" color-interpolation-filters="sRGB">
<feFlood flood-opacity="0" result="BackgroundImageFix"/>
<feColorMatrix in="SourceAlpha" type="matrix" values="0 0 0 0 0 0 0 0 0 0 0 0 0 0 0 0 0 0 127 0" result="hardAlpha"/>
<feOffset/>
<feGaussianBlur stdDeviation="1"/>
<feComposite in2="hardAlpha" operator="out"/>
<feColorMatrix type="matrix" values="0 0 0 0 0 0 0 0 0 0 0 0 0 0 0 0 0 0 0.15 0"/>
<feBlend mode="normal" in2="BackgroundImageFix" result="effect1_dropShadow_24_7"/>
<feBlend mode="normal" in="SourceGraphic" in2="effect1_dropShadow_24_7" result="shape"/>
</filter>
</defs>
</svg>
