<svg width="193" height="193" viewBox="0 0 193 193" fill="none" xmlns="http://www.w3.org/2000/svg">
<g clip-path="url(#clip0_34_2)">
<path fill-rule="evenodd" clip-rule="evenodd" d="M33.0243 119.046C33.1353 119.227 33.1612 119.418 33.2709 119.599C33.0379 119.795 32.5393 119.238 33.0243 119.046ZM44.406 111.391C44.1447 111.67 43.8293 111.396 43.558 111.57C43.9068 112.088 44.7357 111.891 44.406 111.391ZM40.7561 118.389C41.0685 118.409 41.0786 117.877 40.9964 117.884C40.8688 117.894 40.6516 118.359 40.7561 118.389ZM54.677 106.157C54.8377 105.729 55.1729 105.673 54.9649 105.166C54.8434 105.499 54.343 105.868 54.677 106.157ZM38.7916 125.896L38.7912 125.896C38.8057 126.033 38.9048 126.145 39.0378 126.176C39.1719 126.206 39.3096 126.148 39.3818 126.031C39.1679 125.804 38.9681 125.732 38.792 125.895L38.7916 125.896ZM57.408 104.543C57.2972 104.426 57.3241 104.161 57.0938 104.285C57.2054 104.402 57.1777 104.666 57.408 104.543ZM57.9425 104.106C58.1787 104.091 58.3121 103.747 58.2681 103.496C58.1214 103.625 57.9511 103.531 57.7973 103.637C57.9303 103.786 57.8336 103.955 57.9425 104.106L57.9425 104.106ZM63.8424 99.4856C63.9258 99.4463 64.432 99.2961 64.1864 99.0674C64.1324 99.3423 63.5902 99.1623 63.8468 99.4891L63.8424 99.4856ZM64.5646 103.939L64.5642 103.94C64.6794 104.031 64.7597 104.158 64.791 104.302L64.9623 104.093C64.9165 103.856 64.8055 103.772 64.569 103.943L64.5646 103.939ZM48.8457 125.393C48.518 125.568 48.8181 126.148 49.093 125.947C48.8898 125.779 49.1989 125.555 48.8501 125.397L48.8457 125.393ZM49.9727 125.092L49.9716 125.092C49.8443 124.954 49.6335 124.933 49.4806 125.041C49.5964 125.132 49.6774 125.26 49.7101 125.404L49.9727 125.092ZM69.6643 100.941L69.8743 101.113L70.0456 100.905L69.8356 100.732L69.6643 100.941ZM48.7045 134.744C48.4355 134.884 48.5897 135.437 48.845 135.215C48.6867 135.07 48.9828 134.881 48.7045 134.744ZM48.9202 135.974C48.8643 135.883 49.053 135.592 48.781 135.504C48.5516 135.879 48.4414 136.243 48.9793 136.543C49.1225 136.382 49.1733 136.158 49.1137 135.952C49.1212 136.024 48.9628 136.051 48.9175 135.977L48.9202 135.974ZM50.3239 135.551C50.2634 135.827 49.7225 135.642 49.9792 135.968C50.0599 135.932 50.5679 135.782 50.3212 135.554L50.3239 135.551ZM66.8922 119.886C66.7273 119.784 66.609 119.623 66.56 119.436L66.302 119.75C66.5155 119.977 66.7146 120.05 66.8922 119.886L66.8922 119.886ZM66.5666 120.495C67.1739 120.405 66.4414 119.86 66.5666 120.495V120.495ZM52.9598 137.899C52.5588 137.746 52.2341 138.359 51.8735 138.578C52.1467 138.662 51.9134 138.963 52.014 139.049C52.0589 139.084 52.4037 138.845 52.4988 139.098C52.3733 139.271 52.1864 139.45 52.4508 139.584C52.615 139.02 53.39 138.399 52.9597 137.899L52.9598 137.899ZM67.2054 120.145C67.069 120.361 67.4262 120.227 67.3291 120.422C67.4319 120.637 66.8842 120.915 67.2977 121.1C67.4556 121.258 68.0024 120.592 67.8138 120.471C67.4344 120.625 67.8969 119.895 67.359 119.746C67.2748 119.88 67.1012 120.029 67.2054 120.145L67.2054 120.145ZM54.242 138.252C54.1264 138.381 53.9889 138.285 53.8781 138.478C54.0025 138.854 54.479 138.377 54.242 138.252ZM67.4785 124.93C67.8346 125.289 68.1754 125.53 68.4697 125.218C68.0875 125.083 67.9257 124.97 68.3094 124.56C67.9941 124.285 67.7366 124.62 67.4785 124.93ZM55.8053 141.466C55.4873 141.755 55.8263 141.979 55.8805 142.23C56.1998 141.943 55.8601 141.719 55.8053 141.466ZM60.4907 141.106C60.6256 140.978 60.6469 140.771 60.5405 140.62C60.4055 140.748 60.3843 140.954 60.4907 141.106ZM79.506 119.907C79.2882 119.606 79.1261 119.957 78.9311 119.968C79.1518 120.269 79.3112 119.916 79.5024 119.909L79.506 119.907ZM64.5985 146.773L64.8085 146.945C64.8665 146.875 64.9241 146.805 64.9806 146.735L64.772 146.564C64.713 146.633 64.6564 146.703 64.5985 146.773L64.5985 146.773ZM66.882 145.491C66.8421 145.106 66.6384 145.37 66.3763 145.252C66.1327 145.53 66.3778 145.606 66.0323 145.671C66.4628 145.898 66.9878 145.847 67.3668 145.54C67.1896 145.336 67.0431 145.513 66.882 145.491L66.882 145.491ZM68.9469 142.98C69.0754 143.128 68.9818 143.298 69.0874 143.451C69.3573 143.308 69.2045 142.756 68.9469 142.98ZM85.0499 124.47C85.2822 124.222 85.1573 124.011 85.0797 123.793C84.8235 124.044 84.7469 124.276 85.0499 124.47ZM67.4247 146.109C67.5352 145.939 67.7802 145.755 67.6645 145.605C67.4128 145.634 67.2039 145.883 67.4235 146.112L67.4247 146.109ZM69.1442 144.016C69.1726 144.293 69.4224 144.503 69.6344 144.068L69.6351 144.068C69.5067 143.931 69.298 143.911 69.1451 144.019L69.1442 144.016ZM93.8847 117.354L94.056 117.145C94.1033 117.077 94.1424 117.008 94.0362 116.953C93.9778 117.012 93.9184 117.065 93.8442 116.973C93.8907 116.869 94.0116 116.765 93.9131 116.678C93.6605 116.927 93.5825 117.159 93.8847 117.354L93.8847 117.354ZM91.9997 123.698C92.5159 124.307 92.4164 123.28 91.9997 123.698V123.698ZM110.386 109.876C109.987 109.563 109.991 109.748 109.758 109.359C109.533 109.446 109.37 109.645 109.328 109.883C109.694 110.017 110.087 110.43 110.386 109.876L110.386 109.876ZM111.123 108.552C110.851 108.347 110.569 108.13 110.341 108.436L110.342 108.437C110.531 108.676 110.873 108.727 111.123 108.552V108.552ZM104.519 117.858C104.269 117.598 104.067 117.859 103.861 118.017C104.114 118.277 104.313 118.022 104.519 117.858ZM103.849 118.884C103.241 118.976 103.975 119.52 103.849 118.884V118.884ZM116.154 105.849C116.423 105.709 116.27 105.157 116.014 105.379C116.137 105.527 116.048 105.699 116.154 105.849ZM108.938 116.755C109.132 116.447 108.954 116.175 108.759 115.906C108.538 116.216 108.575 116.502 108.938 116.755ZM111.528 114.675C111.381 114.851 111.189 114.494 111.037 114.622C111.1 114.712 111.087 114.81 110.97 114.918C111.146 115.248 111.728 114.948 111.528 114.675L111.528 114.675ZM116.207 111.33C115.974 111.577 116.1 111.789 116.177 112.007C116.431 111.758 116.51 111.524 116.205 111.331L116.207 111.33ZM116.742 110.893C116.489 111.108 116.746 111.277 116.417 111.502L116.415 111.503C116.532 111.593 116.612 111.722 116.644 111.865C116.81 111.816 117.448 111.719 117.265 111.323C116.91 111.801 116.882 111.028 116.741 110.893L116.742 110.893ZM140.841 84.5787C141.13 84.8991 141.35 84.5243 141.624 84.695C141.857 84.7859 142.134 85.3268 142.338 85.1042C142.146 84.8989 142.694 84.6209 142.369 84.4282L142.369 84.4286C142.227 84.5151 142.065 84.5637 141.899 84.5691C141.834 84.1901 142.243 83.766 141.978 83.4056C141.649 83.6307 141.902 83.7974 141.652 84.0151C141.536 83.8769 141.479 84.1199 141.375 84.1377C141.272 84.1554 141.088 83.8793 140.992 84.1787C141.103 84.2969 140.972 84.4376 140.841 84.5787L140.841 84.5787ZM141.574 85.1808C141.251 84.82 141.012 85.3401 140.689 84.9796C140.773 84.8637 140.622 84.7864 140.497 84.9994C140.889 85.3885 141.258 85.5583 141.574 85.1808L141.574 85.1808ZM141.697 85.4583C141.814 85.7539 142.335 85.7069 142.081 85.4176C141.965 85.5586 141.818 85.3661 141.697 85.4583ZM35.1417 116.043C35.0826 115.984 35.0313 115.925 35.1219 115.851C35.1788 115.899 35.3106 115.863 35.2079 115.746C34.9208 115.671 34.7416 116.261 35.1417 116.043ZM35.5718 115.518C35.7228 116.004 35.7674 115.559 35.9354 115.291C36.186 115.424 36.3795 115.645 36.4773 115.912C36.7641 116.235 36.9434 115.425 37.2403 115.838C37.3544 115.697 37.4696 115.558 37.5843 115.42C37.7807 115.129 37.2847 115.415 37.1651 115.074C37.583 114.983 38.1135 114.865 37.7678 114.342C38.2814 114.168 38.1037 114.553 38.3957 114.859C38.6577 114.576 38.2101 114.362 38.7032 114.059C38.5712 114.028 38.4397 113.996 38.3195 114.1C38.1674 113.752 38.8465 113.684 39.0825 114.026C39.1808 113.855 38.7996 113.734 38.942 113.555C39.0506 113.345 39.1858 113.425 39.325 113.514C39.4605 113.582 39.5677 113.365 39.7086 113.474C39.7885 113.334 39.5888 113.228 39.4811 113.112C39.5973 113.004 39.6106 112.906 39.548 112.816C39.7836 112.598 40.0628 112.851 40.3103 112.742C40.4706 112.788 40.2106 112.989 40.2434 113.038C40.4373 113.327 40.9337 112.989 41.2339 113.326C41.5714 112.868 41.8096 112.972 41.9213 112.489L41.9224 112.488C42.1146 112.501 42.2953 112.587 42.4277 112.728C42.4407 112.536 42.5268 112.355 42.6669 112.223C43.1148 112.468 42.6259 112.803 42.6559 113.09C42.9711 113.316 43.2347 113.551 42.9199 113.835C42.5531 113.678 42.7701 113.464 42.4831 113.3C42.3508 113.269 42.221 113.238 42.0995 113.34C41.9793 113.55 42.3181 113.387 42.4136 113.598C42.4375 113.65 42.2385 113.925 42.2597 113.999C42.3054 114.145 42.4312 113.967 42.451 113.978C42.6267 114.071 42.4418 114.234 42.8707 114.323C43.2212 113.833 43.4149 113.074 44.0449 113.535C44.1894 113.357 44.3317 113.186 44.475 113.01C44.4249 112.643 43.9564 112.924 43.8847 112.876C43.7345 112.776 43.9895 112.676 43.9522 112.581C43.8686 112.333 43.5973 112.477 43.3434 112.256C43.4722 111.969 43.7295 112.403 43.9177 112.195C44.0436 112.059 44.27 112.34 44.4226 112.435C44.6528 112.32 44.5541 112.12 44.5765 112.035L44.5766 112.033C44.6389 111.905 44.6903 111.771 44.7298 111.634C44.7178 111.478 44.3925 111.342 44.5893 111.163C44.4327 111.05 44.2779 110.937 44.3611 110.801C43.92 110.492 44.1795 111.261 43.7889 110.857C43.9293 110.658 44.0989 110.741 44.2391 110.526C44.624 110.739 44.4009 110.988 44.7619 110.956C45.1355 110.663 44.4468 110.473 44.8792 110.174C44.9372 110.441 44.9592 110.35 45.278 110.327C45.5481 110.31 45.9398 110.352 46.1274 110.149C46.3235 110.261 46.2259 110.395 46.3556 110.511C46.3582 110.023 46.8862 110.08 46.9388 109.588C47.2682 109.777 46.717 110.059 46.9089 110.264C47.4424 110.386 46.9611 109.823 47.2345 109.655L47.5483 109.913C47.7822 109.732 47.5623 109.591 47.4078 109.443C47.5768 109.198 47.7676 109.18 47.9799 109.387C47.9296 108.967 48.3606 109.101 48.5827 108.654C48.7709 108.714 48.9126 109.051 49.1055 109.084C49.3591 109.127 49.9675 108.297 49.4892 109.043C50.0052 109.063 50.5314 109.203 50.9967 108.704L50.9973 108.706C51.0645 109.001 51.3224 109.213 51.6242 109.222C51.7808 109.012 51.063 109.065 51.379 108.669C51.1959 108.762 50.9626 108.353 50.7886 108.535C50.53 108.305 50.8615 107.941 51.1142 107.926C51.2724 107.96 51.0149 108.185 51.0467 108.221C51.1587 108.349 51.2266 108.095 51.3235 108.097C51.5283 108.101 51.7732 108.448 51.933 108.423L51.9323 108.422C51.9357 108.276 51.9896 108.134 52.0856 108.022C51.8411 107.817 51.629 107.949 51.3715 107.613C51.4699 107.457 52.0879 107.975 51.8423 107.472C52.0492 107.282 52.2943 107.494 52.5196 107.504C52.6469 107.348 52.4014 107.385 52.4141 107.417C52.2304 106.985 52.6657 107.353 52.8442 106.893C53.4073 107.5 53.6975 106.737 53.9698 106.59C54.1259 106.704 54.2811 106.816 54.1971 106.954C54.4104 107.205 54.5309 106.43 54.7693 106.897C55.0804 106.674 54.7342 106.515 54.9048 106.306C55.1046 106.062 55.305 105.818 55.5065 105.574C55.5884 105.381 55.3389 105.506 55.1927 105.316C55.3966 105.042 55.2619 104.824 55.6429 104.984C55.6342 104.572 55.7657 104.891 56.0065 104.757C56.2032 104.933 55.4181 105.024 56.0674 105.332C56.2358 105.417 56.3702 105.142 56.5176 105.001C56.5111 104.835 56.4632 104.673 56.3771 104.53C56.8662 104.378 56.8739 105.025 57.2626 104.733C57.4435 104.909 57.0356 105.141 57.1279 105.323L57.5472 105.669C57.7401 105.75 57.6164 105.501 57.8052 105.355C58.0459 105.342 58.0038 105.448 58.118 105.612C58.1679 105.511 58.0978 105.421 58.1856 105.317C57.904 105.055 57.6889 105.502 57.386 105.009C57.5054 104.801 57.6073 104.77 57.7491 104.782C57.7239 104.781 58.1327 104.924 58.0449 104.849C58.132 104.924 58.0502 105.054 58.1674 105.127C58.3986 105.268 58.6369 105.183 58.7769 105.452C59.0306 105.077 58.544 104.769 58.198 104.451C58.092 104.26 58.3795 104.218 58.37 104.241C58.4037 104.152 58.3172 103.878 58.3294 103.857C58.4174 103.703 58.8265 103.713 58.6734 103.439C58.8501 103.197 59.1093 103.788 59.3692 103.659C59.7699 103.462 59.3979 103.472 59.7694 103.813C60.0197 103.654 59.8913 103.448 60.0093 103.309C60.2112 103.071 60.4055 103.234 60.649 102.958C60.3507 102.526 60.1603 103.215 59.8681 102.842L59.8679 102.841C60.0504 102.509 60.4653 102.383 60.8018 102.558C61.1406 102.301 61.0084 102.088 61.2117 101.842C61.6193 101.686 61.5772 102.54 62.0302 102.34C62.0779 102.163 61.5621 102.085 62.0607 101.664C61.8217 101.643 61.6022 101.525 61.4512 101.339C61.6647 101.071 61.6341 101.275 61.7469 101.406C61.9514 101.532 62.1297 101.419 62.3003 101.159C62.5788 101.292 62.2841 101.482 62.4408 101.63C62.8803 102.197 63.1475 100.994 63.5664 101.327C63.5851 101.164 63.414 101.021 63.6172 100.836C63.5751 100.662 63.3311 100.779 63.3218 100.769C63.2088 100.641 63.3349 100.487 63.2811 100.385C63.2085 100.241 63.1274 100.427 63.0912 100.406C63.014 100.362 62.9747 99.928 62.7771 100.148C62.4565 99.8344 63.4105 99.7393 63.1607 100.107C63.3233 100.126 63.4663 99.9555 63.6461 100.157C63.693 100.127 63.694 99.4932 63.9902 99.7382C64.2706 99.9679 64.1093 99.5034 64.3357 99.319C64.6312 99.7316 64.8098 98.9208 65.098 99.2447C65.3758 98.8121 65.7074 98.9241 66.019 98.7731C66.3663 98.9321 66.0601 99.1561 66.2642 99.3257C66.2841 99.0248 66.7928 98.8752 66.8475 98.4027C67.1206 98.6073 67.3342 98.4737 67.3717 98.8328C67.4919 98.5976 67.7037 98.3514 67.4015 98.1565C67.5713 97.9125 67.76 97.8935 67.9771 98.096C68.1043 97.9437 67.808 97.401 68.2352 97.7818C68.374 97.4175 67.7876 97.6552 67.6073 97.2651C67.7612 96.8649 67.9931 97.2728 68.1972 97.3998L68.1975 97.4008C68.2408 97.1779 68.251 96.9495 68.2282 96.7231C68.3962 96.4046 68.5402 96.6569 68.7829 96.4773C68.8216 96.4477 68.9035 96.2668 68.9542 96.2686C69.0049 96.2704 69.2521 96.9939 69.3543 96.4226C69.4958 96.5526 69.6369 96.6834 69.7531 96.5757C69.8628 96.693 69.6852 96.8399 69.6005 96.9766C69.4491 97.1839 69.8865 97.3329 69.6614 97.5515C69.7728 97.6154 70.0342 97.392 70.1116 97.2204C70.1379 97.1746 70.0588 96.8579 70.071 96.8368C70.1074 96.7732 70.3296 96.7244 70.4331 96.6086C70.5961 96.4287 70.5338 96.1462 70.7587 95.9991C71.3587 96.2621 70.8233 96.6342 71.422 96.8992C71.4216 96.6385 71.153 96.412 71.1573 96.1558L71.9314 95.2133C72.3006 95.3658 72.6396 95.2287 73.0312 95.5829C72.7742 95.9158 72.456 95.611 72.2198 96.1437L72.4276 96.3163C72.5629 96.3938 72.5724 96.2586 72.5144 96.2108C72.7043 96.1898 72.8953 96.1686 73.0858 96.1561L73.0859 96.1543C73.2392 96.0452 73.4496 96.0677 73.5765 96.2058C73.2339 96.4633 73.6985 96.6424 73.3557 96.9016C73.0874 96.7869 72.8257 96.7368 72.6109 97.1656C72.6271 97.4209 72.8507 97.883 73.1337 97.5949C73.1256 97.7074 73.1942 97.9772 73.0829 98.0859C72.9094 98.2542 72.8279 98.1113 72.5304 98.3312C72.4825 98.3673 72.3176 98.3763 72.3391 98.3514C72.2685 98.4335 72.351 98.6459 72.1852 98.7515C72.1098 98.7991 71.7831 98.5693 71.6325 98.9985C71.8136 99.2321 71.9528 99.0114 72.1033 98.858C72.4128 98.9056 72.1045 99.1791 72.144 99.2417C72.265 99.4408 72.5177 99.2706 72.6489 99.482C72.5751 99.7882 72.3608 99.4857 72.2653 99.5227C71.9302 99.6402 71.942 99.892 71.7492 100.151C71.5769 99.9225 71.1101 99.6759 70.8628 99.949C70.7368 100.087 70.6886 99.8492 70.5675 99.8815C70.4464 99.9138 70.5684 100.083 70.5873 100.073C70.2134 100.271 69.7587 100.091 69.4625 100.375C69.4282 100.433 69.4405 100.508 69.4931 100.551C69.5457 100.594 69.6213 100.592 69.6715 100.547C69.7741 100.709 69.601 100.645 69.4994 100.757C69.5261 100.728 69.6243 100.949 69.5196 100.948C69.189 100.944 69.2001 101.364 68.7928 101.404C68.3583 101.447 68.9871 101.629 68.4676 102.013L68.4673 102.012C68.3287 102.137 68.1777 102.248 68.017 102.345C67.7379 102.446 67.4664 102.113 67.3777 102.696C67.3075 102.091 66.8543 103.155 66.4913 102.494C66.2832 102.705 66.3041 102.897 66.5522 103.069C66.3644 103.45 66.1188 103.228 65.931 103.61C65.8962 103.371 65.7998 103.435 65.6169 103.351L65.2722 103.769C65.0255 103.541 64.8109 103.667 64.577 103.549C64.4312 103.726 64.2879 103.9 64.1477 104.072C63.9563 104.007 63.7459 104.029 63.5721 104.132C63.2272 103.88 62.8872 103.693 62.5997 104.034C62.7466 104.218 62.865 104.115 62.9834 103.994C63.1362 104.285 63.2332 104.602 63.2676 104.928C63.6232 104.916 63.4214 105.184 63.5129 105.481C63.673 105.656 63.6041 105.857 63.3789 106.071C63.0101 105.912 62.6419 105.748 62.339 106.269C61.8104 106.283 61.7305 105.74 61.3489 105.98C61.3694 106.546 61.9542 106.486 61.9271 106.983L61.9273 106.984C61.595 106.941 61.2809 106.807 61.0209 106.595C60.8731 106.676 61.1665 106.809 61.1435 106.872C61.0743 107.072 60.8732 106.978 60.7817 107.1C60.6901 107.222 60.8524 107.39 60.8224 107.484C60.7981 107.551 60.3348 107.603 60.5643 107.798C60.2753 107.762 60.2935 107.976 59.925 108.149L59.9247 108.147C59.8255 108.131 59.7269 108.108 59.63 108.08C59.5573 108.144 59.6435 108.391 59.4757 108.481C59.2988 107.893 58.5709 108.668 58.1775 108.992C57.9795 108.851 58.0617 108.682 57.8464 108.541C57.6128 108.723 57.8327 108.863 57.9856 109.011C57.8427 109.223 57.6628 109.427 57.4329 109.259C57.2727 109.14 57.1476 109.443 56.8795 109.505L56.8788 109.505C56.7722 109.295 56.5828 109.139 56.356 109.075C56.1359 109.255 55.9903 109.509 55.9465 109.79C56.1532 109.933 56.3022 109.489 56.4999 109.544C56.6001 109.63 56.4765 109.738 56.4327 109.838L56.4323 109.839C56.6246 109.852 56.8049 109.938 56.937 110.078C56.6355 110.275 56.2879 109.991 55.9646 109.98C56.0068 110.325 55.6717 110.283 55.4116 110.228C55.3915 110.39 55.5632 110.534 55.3626 110.713C55.194 109.954 54.491 110.531 54.1134 110.739C53.4217 110.42 53.8756 109.992 53.4341 109.652C53.1155 109.941 53.4542 110.164 53.508 110.415C53.4911 110.545 53.1514 110.707 53.164 110.834C53.1604 110.84 53.2718 110.916 53.2681 110.92C53.1957 111.008 52.6355 111.163 53.1334 111.51C52.516 112.09 51.8281 111.971 51.1589 111.99C51.0556 112.505 50.7313 112.481 50.3848 112.933C50.1369 112.7 49.9262 112.825 49.7084 112.903L49.7087 112.904C49.5225 113.27 49.2577 113.591 48.934 113.844C48.9474 114.068 49.0748 114.28 48.7125 114.54C48.6048 114.424 48.5072 114.41 48.4168 114.473C48.1244 114.248 48.3494 114.125 47.9989 114.128C47.8303 113.93 47.6767 114.268 47.5281 114.269C47.4667 114.27 47.3735 114.084 47.3195 114.097C47.2648 114.11 47.2013 114.304 47.1474 114.307C46.9158 114.304 46.9086 114.531 46.5262 114.848C46.4918 114.877 46.2483 114.766 46.2309 114.781C45.9274 115.038 45.7758 115.417 45.4561 115.723C45.278 115.535 45.1484 115.85 44.9853 115.863C44.8223 115.877 44.6374 115.591 44.4998 115.816C44.3578 116.136 44.9387 115.851 45.109 116.14C44.9496 116.482 44.7258 116.166 44.5368 116.196C44.3123 116.379 44.3805 116.532 44.2969 116.701L44.2974 116.698C44.4665 116.777 44.6678 116.717 44.7674 116.559C45.0544 116.723 44.8374 116.936 45.2045 117.093C45.3729 117.178 45.506 116.903 45.6543 116.763L46.0726 117.107C45.9233 117.214 45.754 117.12 45.6026 117.246L45.6023 117.245C45.9104 117.46 46.2516 117.622 46.6115 117.725C46.7216 117.842 46.7901 117.618 46.888 117.602C46.9852 117.586 47.1804 117.84 47.2716 117.562C47.8095 117.912 48.01 118.003 48.041 118.546C48.3523 118.468 48.6733 118.437 48.9942 118.452L49.519 118.883C49.7097 118.948 49.9202 118.926 50.0933 118.822C50.2699 119.172 50.8749 119.129 50.7219 119.339C50.8226 119.472 50.9119 119.21 50.9974 119.214C51.2495 119.229 51.637 119.668 51.8663 119.227C52.0033 119.846 52.6937 119.373 53.2008 119.096C53.4148 119.321 53.6153 119.394 53.7907 119.231L53.7903 119.232C53.8167 119.395 53.8001 119.563 53.7423 119.718C54.1876 119.685 54.6884 120.422 54.42 119.748C54.5629 119.767 55.1603 119.633 55.0093 119.883L55.0086 119.882C55.1747 119.878 55.3365 119.83 55.4786 119.743C55.5127 120.039 56.1845 120.073 56.0384 120.553C56.2312 120.636 56.1078 120.386 56.2963 120.241C56.4654 119.966 55.8517 119.77 56.2225 119.478L56.2232 119.478C56.2309 119.64 56.3387 119.78 56.4935 119.83C56.6488 119.879 56.8182 119.827 56.9186 119.7C57.0255 119.849 56.9308 120.019 57.0591 120.17L57.0584 120.17C57.2439 120.296 57.4749 120.335 57.6909 120.276C57.9077 120.218 58.0873 120.068 58.1837 119.866C58.4218 119.742 58.2444 120.022 58.1162 120.161C58.3287 120.37 58.5199 120.352 58.6883 120.107C58.798 120.288 58.8242 120.478 58.9349 120.66C58.9772 120.587 58.9346 120.33 59.0888 120.26C59.1768 120.221 59.1613 120.47 59.109 120.452C59.2072 120.486 59.8385 120.241 59.9758 120.463C59.8617 120.603 59.7466 120.742 59.6318 120.881C59.8464 121.134 59.9656 120.357 60.204 120.825C60.4752 120.317 60.8137 120.499 61.1041 120.161C61.2091 120.344 61.7452 120.484 61.5408 120.697C61.6841 120.702 62.2715 120.478 62.0765 120.259C62.1944 120.158 62.229 120.288 62.1806 120.345C62.3186 120.424 62.3487 120.522 62.3038 120.623L62.3045 120.623C62.4737 120.7 62.675 120.64 62.7749 120.483C62.7991 120.829 63.1205 120.723 63.3649 120.618C63.4765 120.162 62.6609 120.554 62.737 120.101C62.9192 119.992 63.1087 119.966 63.2903 119.855C63.3554 120.337 64.1956 120.146 63.6602 120.686C64.2296 120.927 64.7291 120.455 65.2534 120.242C65.29 120.716 65.6566 120.205 65.9675 120.651C66.1048 120.736 66.2138 120.531 66.331 120.423L66.3317 120.424C66.4381 120.575 66.4176 120.782 66.283 120.909C66.4211 120.989 66.5286 120.79 66.6448 120.682C66.6852 120.822 66.7273 120.962 66.8548 120.854C66.9578 121.165 66.482 121.532 66.7563 121.826C67.0468 122.022 66.7602 121.528 67.101 121.408C67.2933 121.421 67.474 121.506 67.6053 121.648C67.7162 121.466 67.6049 120.828 68.0152 120.933C68.1109 120.571 67.8907 120.242 68.1994 119.855C68.4942 120.248 68.6976 119.99 68.4765 119.733C68.7916 119.565 68.7707 120.319 69.1542 119.763C69.2527 119.85 69.1294 119.959 69.0857 120.057C68.9759 120.327 69.5902 120.523 69.1588 120.822C69.4473 121.14 69.6704 120.802 69.9226 120.746C70.1127 121.045 70.507 121.135 70.8085 120.949C71.1183 120.613 70.5466 120.598 70.4774 120.499C70.2756 120.219 70.3548 119.96 70.1072 119.669C70.4635 119.549 70.4892 119.656 70.6428 119.231C70.7189 119.307 70.6524 119.441 70.766 119.509C70.9239 119.599 70.9074 119.398 71.0425 119.386C71.2014 119.37 71.3895 119.656 71.5335 119.437C71.634 119.488 71.5948 119.556 71.5537 119.628C71.7511 119.675 71.9326 119.565 72.1071 119.381C72.3986 119.764 72.7096 119.549 72.735 119.898C72.8976 119.917 73.0406 119.746 73.2212 119.946L73.2204 119.947C73.3326 119.736 73.5253 119.578 73.7556 119.511C73.9614 119.758 73.9371 119.875 74.3644 119.836C74.4684 119.826 74.4503 119.933 74.5564 119.816C74.6812 119.681 74.9483 119.923 75.2516 120.036C75.3326 119.933 75.1901 119.851 75.1286 119.76C75.2843 119.558 75.4306 119.803 75.6196 119.811L75.6199 119.812C75.9951 119.808 76.3571 119.671 76.6405 119.424C76.7005 120.053 77.1221 119.349 77.4409 119.731C77.3541 119.836 77.2675 119.94 77.1818 120.045C77.4808 120.477 77.6708 119.789 77.9647 120.161C77.5644 120.583 78.4347 120.726 78.6107 120.868C78.7614 120.93 79.0276 120.901 78.8862 120.744C79.0784 120.701 79.1261 121.049 79.441 120.498C79.8271 120.562 80.0599 120.582 80.2594 120.996C80.4987 121.148 80.6661 120.56 80.8987 120.645C81.1666 120.811 80.7668 121.043 80.9596 121.22C81.2478 121.544 81.425 120.732 81.7219 121.146C81.2005 121.582 81.2382 121.963 81.8341 122.29C81.9804 122.019 81.5468 121.591 81.7408 121.336C81.9251 121.097 82.0251 121.323 82.2108 121.197C82.335 120.96 81.7379 120.796 82.2414 120.519L82.2404 120.52C82.3633 120.853 82.4298 121.205 82.439 121.559C82.5402 121.609 82.6302 121.539 82.7343 121.627C82.9061 121.21 82.8217 120.731 82.5175 120.397C82.3202 120.35 82.1393 120.46 81.9649 120.644C81.7098 120.508 81.7462 120.345 81.6324 120.193C81.2627 120.005 81.5494 120.5 81.2883 120.612C81.2093 120.395 80.9518 120.195 81.3182 119.935C81.3383 119.773 81.167 119.629 81.3676 119.45C81.3998 119.672 81.5077 119.717 81.6626 119.516C81.6722 119.677 81.8986 119.816 81.8031 119.987C82.2972 120.14 82.4337 119.568 82.7242 119.515C83.0012 119.713 82.9199 119.945 82.8844 120.174C83.1108 120.187 83.3244 120.066 83.5433 120.014C83.571 120.42 83.8842 120.209 84.1716 120.53C83.6582 120.65 83.8999 121.34 83.9021 121.711L83.9018 121.71C84.0682 121.705 84.2301 121.657 84.3722 121.571C84.5057 121.469 84.2453 121.382 84.2492 121.294C84.2589 121.087 84.6923 120.915 84.3847 120.703C84.593 120.769 84.5758 120.48 84.556 120.494C84.8602 120.299 85.01 120.551 85.2821 120.038C85.1188 120.019 84.9758 120.189 84.7919 119.986C85.2523 119.55 85.1673 119.237 85.566 119.043C85.9118 119.203 85.085 119.476 85.4312 119.635C85.7127 119.898 85.8687 118.845 86.174 119.37C86.149 119.095 86.3684 118.972 86.6448 119.229L86.6451 119.23C86.4578 119.38 86.3405 119.6 86.3199 119.839C86.5306 120.043 86.6724 119.507 86.8545 119.402C87.1442 119.524 86.8275 119.741 86.995 119.873C87.1218 119.97 87.3559 119.698 87.4658 119.732C87.685 119.804 87.5635 120.092 87.7969 120.183C88.0645 120.291 88.2687 119.75 88.5404 119.918C88.8048 120.052 88.6202 120.233 88.491 120.403C88.7802 120.722 88.9996 120.349 89.2739 120.52C89.3412 120.385 89.1239 120.278 89.2332 120.136C89.3456 119.94 89.4798 120.037 89.5968 119.909C89.8139 120.211 89.3988 120.569 89.4983 120.88C89.6878 120.947 89.8971 120.927 90.0704 120.826C90.5336 120.426 89.5548 120.17 90.2532 119.748C89.9536 119.631 89.6969 119.959 89.3863 119.737C89.2778 119.947 89.143 119.867 89.0027 119.778C89.152 119.671 89.3219 119.766 89.4727 119.639C89.0876 118.977 88.8882 120.204 88.5004 119.541C88.6083 119.33 88.7455 119.411 88.8833 119.5C88.8263 119.305 88.9259 118.613 88.6186 118.756C88.3698 118.509 88.9133 118.696 88.9633 118.338C89.1724 118.446 89.0934 118.582 89.004 118.722C89.1489 118.878 89.2384 118.508 89.3683 118.493C89.5224 118.476 89.7264 118.828 89.8722 118.734C89.8913 118.571 89.7209 118.428 89.9229 118.243L90.2371 118.501C90.3729 118.247 90.5366 118.282 90.6873 118.17C90.706 118.007 90.535 117.864 90.7381 117.679L90.7382 117.677C90.7879 117.864 90.9071 118.025 91.0707 118.128C91.1973 117.955 91.4494 117.77 91.3105 117.624C91.7255 117.522 91.5967 118.021 92.0246 118.033C92.2314 118.176 92.3803 117.732 92.5794 117.787C92.7422 117.403 92.223 117.901 92.0744 117.547C92.3325 117.226 92.6567 117.587 92.9608 117.749C92.8068 118.181 92.5882 117.868 92.407 117.996C92.2471 118.402 92.7857 118.105 92.9121 118.235C93.1458 117.988 93.0209 117.777 92.9426 117.559L92.9415 117.559C93.1721 117.492 93.3652 117.334 93.4758 117.121C93.9339 117.365 93.6046 117.686 93.6552 117.97C93.9164 118.091 94.0871 117.495 94.1462 118.021C94.3986 117.776 94.4789 117.54 94.176 117.345C94.2632 117.245 94.3701 117.369 94.4713 117.412C94.5504 117.274 94.6477 117.246 94.7489 117.289C94.747 116.838 95.3323 116.775 95.2468 116.471L95.2475 116.471C95.4537 116.406 95.6794 116.457 95.8371 116.607C95.9261 116.02 96.7883 116.199 97.2021 115.8C97.6148 115.988 97.3908 116.231 97.5529 116.44C97.4807 116.257 97.6768 116.02 97.6884 115.848C97.709 115.739 97.6598 115.63 97.5661 115.572C97.8706 115.266 98.3506 115.218 98.7098 115.46C98.8456 115.205 99.0093 115.241 99.16 115.128C99.1917 115.273 99.2719 115.4 99.3878 115.491C99.5917 115.218 99.4556 115.01 99.8179 114.967C100.106 115.132 99.8871 115.345 100.255 115.502C100.564 115.716 100.778 114.944 101.104 115.324C101.433 115.099 101.179 114.931 101.429 114.714C101.539 114.447 100.926 114.25 101.356 113.951C101.716 113.92 101.628 114.156 101.878 114.381C102.106 114.251 102.039 113.917 102.204 113.771C102.304 113.685 102.529 113.963 102.604 113.925C102.658 113.899 102.666 113.534 102.844 113.421C102.931 113.368 103.223 113.471 103.334 113.473C103.587 113.258 103.33 113.088 103.66 112.863C103.852 112.876 104.033 112.962 104.164 113.103C104.409 112.826 104.163 112.749 104.51 112.684C104.473 113.041 104.817 112.787 104.908 112.838C105.063 112.927 105.006 113.284 105.328 113.183C105.412 112.759 105.568 112.353 105.788 111.982C105.961 112.33 106.504 112.029 106.119 112.432C106.359 112.576 106.557 112.318 106.797 112.463C106.892 112.229 107.099 111.986 107.017 111.767C107.493 111.708 107.985 111.823 108.457 111.722C108.734 111.578 108.42 111.458 108.416 111.339C108.418 111.164 108.674 111.005 108.468 110.849C108.864 110.529 109.428 110.764 109.07 110.117C109.487 110.014 109.361 110.517 109.786 110.527C109.947 110.547 110.092 110.375 110.271 110.576C110.666 110.358 110.525 109.452 111.064 109.825C111.471 109.593 110.793 109.466 111.199 109.235C111.417 109.536 111.578 109.185 111.771 109.179C111.776 109.305 111.818 109.427 111.893 109.529C112.28 109.607 112.444 108.908 112.581 108.692C112.282 108.595 112.035 109.012 111.75 109.062C111.241 108.79 111.424 108.452 111.086 108.161C111.258 107.953 111.43 107.743 111.603 107.533C111.929 107.914 112.192 107.655 112.452 107.355C112.781 107.769 113.04 107.465 113.319 107.366C113.505 107.221 113.402 107.102 113.279 106.982C113.332 106.623 113.872 106.811 113.623 106.564C113.74 106.463 113.775 106.592 113.727 106.65C114.251 106.621 114.265 106.488 114.648 106.179C114.844 106.291 114.747 106.427 114.876 106.542L114.877 106.542C115.165 106.499 115.458 106.503 115.745 106.554C116.131 105.911 116.604 106.149 117.043 106.043C117.185 105.836 116.742 105.687 116.796 105.489C116.996 105.214 117.194 104.965 117.436 105.138C117.444 104.912 117.657 104.668 117.466 104.462C117.599 104.349 117.891 104.582 117.78 104.72C117.947 104.795 118.096 104.67 118.265 104.769C118.151 104.184 118.478 104.088 118.726 103.569C118.936 103.738 119.096 103.391 119.316 103.704C119.57 103.487 119.316 103.313 119.642 103.095C119.822 103.311 119.971 103.153 120.128 103.143C120.167 103.141 120.502 103.103 120.512 103.102C120.585 103.125 120.615 103.718 120.913 103.256C121.162 103.481 121.075 103.718 121.435 103.685C121.641 103.441 121.508 103.229 121.845 102.97C121.618 102.606 121.467 103.05 121.292 103.217C121.096 102.804 120.932 102.986 120.646 102.51C120.992 102.043 121.344 102.37 121.439 101.759C121.648 101.867 121.569 102.002 121.48 102.143C122.081 102.205 121.999 101.383 122.549 101.268C122.797 101.497 122.289 101.648 122.205 101.687C122.07 102.064 122.517 102.169 122.746 102.307C122.602 101.937 123.214 101.49 122.826 101.144C122.878 100.913 123.267 101.226 123.311 101.193C123.389 101.14 123.213 100.455 123.846 100.756C124.012 100.834 124.111 101.058 124.246 100.908C124.353 100.791 124.517 100.984 124.646 101.062C124.775 101.139 124.892 100.943 125.009 100.835L125.009 100.836C125.259 100.975 125.529 101.078 125.809 101.143C126.129 100.856 125.755 100.635 125.925 100.363C125.591 100.265 125.291 100.444 125.004 100.834C124.54 100.559 124.733 100.219 124.911 99.8808C125.184 100.086 125.436 99.9899 125.694 99.9967C125.774 99.8573 125.574 99.7511 125.466 99.6349C125.697 99.4159 126.129 99.3638 125.601 99.0432C125.769 98.9913 125.886 98.8608 126.071 98.9041C125.979 98.8823 126.05 99.0726 126.092 99.094C126.006 99.0447 126.348 99.0538 126.284 99.0742C126.392 99.0362 126.243 98.6905 126.243 98.6905C126.388 98.5675 126.407 98.7926 126.538 98.757C126.609 98.7384 126.64 98.5638 126.71 98.5483C126.78 98.5322 126.966 98.6356 127.005 98.6159C127.071 98.5836 127.107 98.4231 127.177 98.4059C127.436 98.3412 127.779 98.4905 128.026 98.2272C128.002 98.4738 128.912 98.645 128.912 98.4305C128.912 98.4305 128.764 98.2347 128.892 98.2385C129.126 98.243 128.977 98.1259 128.96 97.9432C128.914 97.4795 129.051 97.512 129.581 97.4023C129.764 97.2706 129.48 96.7299 129.248 96.9513L129.25 96.9514C129.289 96.519 129.539 96.1342 129.919 95.9233C130.153 95.8402 130.235 96.0901 130.369 95.5922C130.721 95.5895 130.495 95.7115 130.789 95.937C130.862 95.4052 131.076 95.0939 131.6 95.3762C131.75 95.0718 131.951 94.7632 131.611 94.5083C131.754 94.485 132.009 94.3562 131.87 94.1945L131.87 94.1938C132.022 94.0874 132.229 94.1084 132.356 94.2436C132.435 94.1056 132.533 94.0769 132.633 94.121C132.627 93.649 133.227 93.7162 133.132 93.3019C133.342 92.9357 133.434 93.4422 133.531 93.4551C133.747 93.4839 133.687 93.296 133.894 93.2277C133.942 93.2124 134.051 93.4084 134.104 93.3998C134.249 93.3737 134.325 93.1752 134.466 93.1716C134.208 92.8296 134.029 93.2943 133.771 92.9512C133.94 92.7414 133.59 92.5867 133.907 92.3599C134.13 92.6893 134.298 92.436 134.515 92.6864C134.966 92.0965 135.343 92.2498 135.566 91.6207C135.389 91.453 135.242 91.5646 135.062 91.3808C135.268 90.8588 135.572 91.3452 135.824 91.3066C136.014 91.3734 136.223 91.3535 136.397 91.2516C136.446 91.1499 136.377 91.0596 136.464 90.9558C136.371 90.813 136.259 91.0991 136.187 91.0788C135.947 91.032 136.088 90.5021 135.768 90.734C135.654 90.5639 135.853 90.6531 135.94 90.524C136.239 90.1681 135.831 89.9689 136.266 89.916C136.394 89.8992 136.387 89.6367 136.334 89.6207C136.382 89.4593 136.576 89.7205 136.628 89.6878C137.216 89.3204 137.507 88.541 138.109 88.0993C138.127 88.0859 138.289 88.2686 138.319 88.2714C138.443 87.2868 139.41 85.8235 140.385 85.7608C140.502 85.6539 140.515 85.5558 140.452 85.4655C140.924 85.391 141.181 86.0416 141.461 85.9446C141.659 86.1805 141.086 86.5675 140.945 86.5729C140.883 86.7231 140.912 86.9898 141.069 86.8498C141.289 87.0848 140.964 87.3726 141.334 87.5932C141.74 87.3616 141.061 87.2356 141.468 87.0033C141.126 87.0449 141.093 86.7168 141.407 86.4284C141.452 86.7907 141.251 86.8587 141.654 86.9817C141.945 87.073 141.974 86.7328 141.968 87.2398C142.069 87.2896 142.16 87.2196 142.264 87.3073C142.474 87.0292 142.012 86.8182 141.998 86.5617C142.165 86.3369 142.347 86.7215 142.59 86.6971C142.63 86.6938 142.725 86.4773 142.761 86.4885C142.849 86.5171 142.763 86.7274 142.884 86.7654C143.02 86.8492 143.129 86.6452 143.246 86.5379C143.355 86.6548 143.453 86.6681 143.541 86.6043C143.752 87.2043 142.934 87.1184 142.54 87.1832C142.56 87.2694 142.277 87.8196 142.58 87.5669C142.805 87.8251 142.253 87.9773 142.11 87.7074C141.942 87.8909 142.408 87.9875 142.441 88.1576C142.438 88.1444 142.085 88.3234 142.182 88.4714L142.184 88.4715C142.489 88.6772 142.746 88.9485 142.935 89.2648C142.764 89.5084 142.502 89.6724 142.209 89.7192C142.016 90.15 142.359 89.9352 142.646 90.2548C142.329 90.2855 141.998 90.181 141.712 90.5391L141.502 90.3671C141.173 90.5908 141.427 90.759 141.176 90.9758C140.626 90.9534 140.353 91.713 140.039 92.1457C139.906 92.3301 139.784 92.2346 139.677 92.3739C139.473 92.6385 139.418 92.9843 139.179 93.1923C138.667 92.8846 138.247 93.5024 137.758 93.4264L137.758 93.4268C137.754 93.574 137.699 93.7151 137.604 93.8265C137.625 93.9529 137.638 94.0803 137.644 94.2091C137.665 94.3193 137.655 94.5004 137.685 94.5927C137.738 94.7824 138.132 94.8488 137.824 95.0628C137.643 95.0546 137.717 94.7953 137.701 94.7856C137.362 94.5783 137.342 95.1579 136.938 94.8595L136.68 95.1743C136.554 95.3266 136.853 95.3968 136.908 95.5365C136.984 95.7281 136.757 95.959 136.963 96.1079C136.912 96.2687 136.725 96.008 136.668 96.0414C136.489 96.1431 136.974 96.4031 136.429 96.5443C136.345 96.7371 136.596 96.6138 136.743 96.8024C136.201 96.8669 136.862 97.3573 136.353 97.7098L136.354 97.7113C136.204 97.5246 135.984 97.4066 135.745 97.3861C135.715 97.5166 135.683 97.6482 135.786 97.7697C135.506 97.7874 135.017 97.7857 134.986 97.4623L134.985 97.4619C134.92 97.7415 134.817 98.0108 134.679 98.2619C134.511 98.2496 134.341 98.1475 134.087 98.1264C134.028 98.1227 133.856 98.2618 133.812 98.2508C133.767 98.2398 133.644 98.0667 133.602 98.0787C133.495 98.1072 133.447 98.3494 133.344 98.3915C133.183 98.3436 133.444 98.1481 133.411 98.0965C133.247 97.8357 132.853 98.3323 132.981 98.6207C133.276 98.8597 132.967 98.1299 133.364 98.58C133.195 98.8512 133.213 99.1803 132.848 99.2079C132.679 99.4171 133.029 99.5724 132.713 99.7979C132.789 99.8921 132.846 99.8386 132.905 99.7781C133.036 99.9255 132.684 100.12 132.856 100.263L132.854 100.264C132.519 100.476 132.126 100.582 131.729 100.566C131.576 100.776 132.181 100.731 132.358 101.082C132.117 101.251 131.852 101.167 131.631 101.538C131.868 101.662 132.032 101.065 132.309 101.569C131.822 101.643 131.909 101.86 131.409 102.233L131.408 102.232C131.25 102.133 131.189 101.931 131.267 101.762C131.168 101.625 130.659 101.768 130.905 101.99C130.535 102.227 130.921 101.621 130.765 101.519C130.553 101.314 130.412 101.851 130.23 101.956C130.172 101.832 130.113 101.706 130.189 101.573C129.571 101.487 129.017 102.028 128.442 102.417C128.62 102.584 128.767 102.474 128.947 102.656C129.087 102.745 129.291 102.484 129.418 102.515C129.622 102.567 129.823 102.877 129.713 102.583C129.851 102.342 129.998 102.853 129.941 102.946L129.942 102.947C129.802 103.073 129.78 103.285 129.89 103.437C129.649 103.595 129.345 103.104 129.11 103.321C128.909 103.587 129.436 103.628 129.51 103.475C129.69 103.536 129.126 104.036 128.957 103.721C128.946 103.967 128.858 104.07 128.593 103.949C128.512 104.053 128.654 104.135 128.716 104.226C128.598 104.472 127.958 104.168 128.107 103.901C128.008 103.764 127.913 104.032 127.83 104.023C127.621 104.004 127.455 103.598 127.221 103.698C127.085 103.983 127.489 103.706 127.448 104.062L127.449 104.061C127.191 104.182 127.001 104.413 126.932 104.689C126.98 104.543 126.739 104.468 126.705 104.326C126.693 104.277 126.79 104.062 126.772 104.03C126.729 103.954 126.572 103.985 126.581 104.05C126.554 103.887 126.721 103.721 126.63 103.566C126.261 103.376 126.546 103.871 126.286 103.984C126.088 103.937 125.907 104.046 125.732 104.23C125.691 104.597 125.857 104.599 126.169 104.766C125.916 105.128 125.631 105.166 125.32 104.943L125.32 104.943C125.324 105.109 125.373 105.272 125.459 105.414C125.342 105.521 125.329 105.618 125.392 105.708C125.227 105.996 125.014 105.78 124.856 106.146C124.644 105.94 124.453 105.957 124.281 106.207C124.202 106.345 124.401 106.452 124.51 106.569C124.45 106.846 123.909 106.66 124.166 106.987C124.008 107.104 123.974 106.845 124.043 106.711C123.611 106.557 123.264 107.305 122.812 106.926L122.813 106.926C122.837 107.087 122.758 107.246 122.614 107.325C122.472 107.403 122.296 107.385 122.173 107.278C121.968 107.522 122.1 107.734 121.763 107.993C121.49 107.486 121.357 108.411 121.105 108.153C121.235 108.59 120.499 109.108 121.044 109.507C120.804 109.613 120.536 109.638 120.281 109.58C120.168 109.737 120.055 109.892 119.918 109.81C119.378 109.5 120.317 109.648 119.778 109.339C119.961 109.229 120.15 109.202 120.331 109.092C120.017 108.828 119.767 109.244 119.501 109.461C119.291 109.353 119.371 109.217 119.461 109.078C119.073 108.88 119.094 109.245 118.925 109.515C118.781 109.346 118.665 109.466 118.526 109.362C118.337 109.733 118.831 109.446 118.945 109.706C118.87 109.906 118.882 110.097 118.809 110.297L118.81 110.297C118.868 110.33 118.942 110.316 118.984 110.265C119.026 110.213 119.026 110.138 118.982 110.088C119.349 109.851 119.162 110.438 119.314 110.539C119.184 110.62 119.06 110.452 118.931 110.579C118.675 110.823 118.559 111.659 118.03 111.243C118.166 110.988 118.33 111.025 118.48 110.912C118.421 110.334 117.668 110.512 117.662 110.413L117.662 110.412C117.688 110.375 117.717 110.34 117.748 110.308C116.909 110.24 116.543 111.344 115.724 111.275C115.472 111.224 115.771 111.8 115.399 111.885C115.274 111.913 115.467 111.588 115.466 111.589L115.466 111.589C115.305 111.564 115.143 111.547 114.98 111.54C114.824 111.666 115.118 111.952 114.95 112.218C114.875 112.348 114.703 112.374 114.396 112.464C114.126 112.543 113.89 112.705 113.511 112.261C113.503 112.679 112.884 113.156 112.582 113.602L112.582 113.602C111.989 113.504 111.399 113.793 111.113 114.322L110.799 114.064C110.852 114.316 110.637 114.592 110.684 114.844C110.53 114.953 110.32 114.931 110.192 114.793C109.977 115.033 109.808 115.311 109.695 115.612C109.683 115.618 109.49 115.435 109.485 115.44C109.373 115.609 109.602 115.796 109.351 116.03C109.209 115.9 109.068 115.77 108.951 115.879C108.683 115.711 109.083 115.48 108.89 115.304C108.745 115.134 108.63 115.254 108.49 115.15C108.452 115.378 108.704 115.578 108.842 115.789C108.213 115.871 108.139 116.335 108.553 116.78C108.378 116.96 108.148 116.548 107.963 116.645C107.663 116.963 107.784 117.239 107.379 117.569C107.272 117.451 107.174 117.438 107.084 117.501C106.956 117.269 107.225 117.298 107.342 117.187C107.362 117.025 107.19 116.88 107.39 116.701L107.39 116.7C107.104 116.739 106.82 116.799 106.542 116.879C106.508 116.937 106.522 117.011 106.573 117.054C106.625 117.096 106.701 117.096 106.751 117.052C106.936 117.751 105.681 117.139 105.851 117.716C105.655 118.02 105.344 117.134 105.174 117.684C104.908 117.64 105.076 117.256 105.034 117.214C104.784 117.001 104.382 117.374 103.994 117.411C103.558 118.062 103.738 118.655 103.123 119.325C102.93 119.312 102.749 119.226 102.618 119.085C102.056 119.648 102.211 120.223 101.604 120.531C101.571 120.548 101.44 120.362 101.394 120.359C101.225 120.535 101.338 120.684 101.154 120.864C100.878 120.763 100.47 120.852 100.438 120.454C100.294 120.631 100.152 120.802 100.008 120.978C99.7932 120.794 99.6182 120.851 99.4169 120.842C99.1885 120.832 98.9541 120.991 98.7406 120.813C98.5199 121.184 98.2253 120.785 98.0152 121.267C97.8318 121.044 97.6791 121.111 97.511 121.028C97.2563 121.127 97.4994 121.463 97.4616 121.513C97.4238 121.563 97.0636 121.601 97.0786 121.554C97.0438 121.658 97.3679 121.909 97.3239 122.107C97.3163 122.14 97.0302 122.215 96.9617 122.335C96.9566 122.344 97.0429 122.44 96.9819 122.526C96.8956 122.642 96.6147 122.576 96.4467 122.963C96.3478 122.877 96.4707 122.769 96.5138 122.668C96.2139 122.533 95.8227 122.216 95.3702 122.779C95.3072 122.434 95.2291 122.68 94.9506 122.434C94.7986 122.302 94.7269 122.616 94.5884 122.662C94.5438 122.677 94.426 122.491 94.3798 122.491C94.2838 122.484 94.1218 122.742 94.0162 122.719C93.8272 122.749 93.6041 122.433 93.4441 122.773C93.1571 122.608 93.3749 122.395 93.0074 122.238C92.6041 122.034 92.6291 122.751 92.4171 122.104C92.1886 122.064 91.9884 122.316 91.7777 122.454L91.7794 122.456C91.7845 122.622 91.8325 122.783 91.9185 122.926C91.8996 123.08 91.7519 122.929 91.7272 122.946C91.6017 123.039 91.7939 123.264 91.7679 123.33C91.6897 123.441 91.6026 123.546 91.5085 123.643C91.3758 123.843 91.4306 123.954 91.27 124.149C91.2853 124.122 91.1288 124.113 91.078 124.168C90.8964 124.367 90.8202 124.509 90.608 124.307C90.48 124.48 90.2293 124.666 90.3677 124.812C90.2183 124.927 90.0353 124.685 89.8635 124.573C89.5712 124.973 89.6767 125.092 89.2614 125.305C88.9788 125.038 88.7004 124.822 88.4793 125.187C88.372 125.039 88.4666 124.869 88.3401 124.717C88.0987 124.54 87.9308 125.124 87.7189 125.258L87.7192 125.259C87.4717 124.902 87.3311 124.482 87.312 124.048C87.1814 124.018 87.0503 123.986 86.9283 124.089C86.9271 124.284 87.1679 124.274 87.1749 124.642C86.7022 125.241 86.8931 125.177 86.4223 125.772L86.4212 125.773C86.2743 125.769 86.1324 125.714 86.0204 125.618C85.7325 125.973 85.4464 126.316 85.0847 125.902L85.0853 125.902C85.0826 126.049 85.0281 126.191 84.9314 126.302C84.4939 126.385 84.7418 125.702 84.3049 125.786C84.1527 125.993 84.5909 126.143 84.3658 126.361C84.0494 126.739 83.6792 126.568 83.2886 126.177C82.9591 126.402 83.2121 126.569 82.963 126.787L82.9624 126.786C82.7705 126.772 82.5905 126.687 82.4588 126.547C82.3221 126.768 82.0789 126.901 81.8187 126.897C81.7564 126.895 81.7923 126.649 81.6951 126.62C81.4613 126.55 80.7837 126.917 80.5316 126.541L80.5323 126.541C80.4525 126.76 80.3006 126.944 80.1019 127.064C80.0606 127.082 79.9422 126.888 79.8919 126.892C79.8416 126.896 79.7725 127.101 79.7198 127.102C79.6675 127.103 79.5652 126.917 79.5112 126.931C79.4564 126.944 78.9755 127.351 78.9578 127.178C78.9403 126.982 78.9277 127.073 78.7665 127.198C78.5173 126.932 78.6391 126.633 78.7772 126.33C78.9326 126.184 78.5678 126.098 78.5505 125.967C78.5427 125.906 78.7172 125.822 78.7218 125.758C78.7511 125.415 78.4838 125.022 78.3324 124.736C78.2106 124.844 78.4477 124.918 78.4561 125.013C78.4524 124.966 78.3421 125.399 78.3885 125.308C78.2937 125.495 77.5302 125.69 77.8906 126.127C77.6851 126.322 77.4074 125.777 77.1954 125.906C76.7582 126.27 77.5349 126.515 77.0969 126.878C76.7524 126.921 76.8288 126.581 76.6602 126.343L76.6617 126.342C76.5917 126.618 76.4027 126.848 76.1456 126.971L75.6214 126.54C75.3277 126.251 74.9933 127.098 74.9455 126.51C74.7996 126.687 74.6587 126.858 74.5154 127.034C74.217 126.603 73.9966 126.976 73.734 126.917C73.3698 126.787 73.7885 126.595 73.7833 126.431C73.7785 126.267 73.5462 126.134 73.6428 125.961C73.1954 125.72 73.4289 126.312 73.0035 126.311C72.9232 126.415 73.0649 126.497 73.1271 126.588C72.986 126.787 72.8171 126.705 72.6769 126.919C72.3743 126.725 72.5876 126.478 72.7068 126.243C72.4547 125.961 72.2888 126.553 72.05 126.404C71.6833 126.363 72.0796 125.937 71.9939 125.832C71.9081 125.726 71.5319 125.835 71.7167 125.954C71.5216 126.26 71.2105 125.376 71.0404 125.924C70.8875 125.852 71.1281 125.714 71.1079 125.629C71.0937 125.581 70.717 125.63 70.8979 125.457C70.5085 125.455 70.2057 126.261 69.8271 126.331C69.6779 126.026 69.2534 125.742 69.1651 125.432C69.4116 125.322 69.675 125.405 69.8899 124.975L69.891 124.973C69.5071 124.919 69.1217 125.066 68.871 125.362C68.3448 125.061 68.7207 124.671 68.4826 124.342C67.7158 123.879 67.2883 124.532 66.8403 125.271C67.2401 125.63 66.9392 125.082 67.3104 125.132C67.714 125.26 67.3614 125.551 67.3712 125.707C67.3849 125.933 67.4396 126.156 67.5319 126.364C67.3633 126.606 67.1218 126.106 66.9231 126.039C66.7218 126.08 66.7513 126.45 66.7692 126.439C66.5797 126.57 66.349 126.328 66.1971 126.493C66.0452 126.659 65.7953 126.263 65.5381 126.655C65.1676 126.166 64.9037 126.726 64.5473 126.366C64.434 126.505 64.3184 126.645 64.2033 126.784C63.8666 126.638 63.2572 126.653 63.1756 126.115C62.9348 125.938 62.7662 126.522 62.5544 126.655L62.5548 126.655C62.3879 126.661 62.2261 126.709 62.084 126.795C61.9211 126.625 61.6656 126.751 61.7698 126.537C61.358 126.589 60.9627 126.81 60.5022 126.372L60.8469 125.954C60.702 125.797 60.6115 126.167 60.4837 126.181C60.3154 126.2 60.1518 125.9 59.9787 125.942C59.8062 125.985 59.5218 126.689 59.2338 126.206C58.8951 126.463 59.1617 126.663 58.8239 126.922L58.1956 126.406C57.9836 126.201 57.8438 126.738 57.6611 126.843C57.2097 126.895 57.5151 126.45 57.3096 126.203C57.1915 126.439 57.4508 126.638 57.0889 126.899C56.9508 126.82 56.9208 126.722 56.9656 126.621L56.9667 126.621C56.57 126.605 56.1774 126.711 55.8415 126.923C55.8091 126.78 55.7285 126.651 55.6137 126.56C55.463 126.419 55.3865 126.754 55.2502 126.788C54.9789 126.857 54.6041 126.406 54.3834 126.776C54.1873 126.664 54.2841 126.53 54.1552 126.414C53.8464 126.354 53.7651 126.693 53.5145 126.764C53.3676 126.81 53.1625 126.571 53.0298 126.715C52.9286 126.825 52.7487 126.602 52.6461 126.756C52.5424 126.582 52.52 126.372 52.5852 126.181C52.2909 126.115 51.9901 125.993 51.7184 126.17C51.3619 125.82 50.7559 125.879 50.691 125.5C50.9419 125.361 51.3666 125.425 51.3865 125.721C51.8751 125.179 50.7623 125.22 50.893 124.613C50.6774 124.383 50.5281 124.821 50.3208 124.669C49.9516 124.449 50.2755 124.161 50.0547 123.925C49.754 123.796 49.5253 124.409 49.1878 123.914C48.9505 124.354 49.1077 124.756 48.8317 125.2C48.4844 125.04 48.7906 124.817 48.5851 124.646C48.4135 124.548 48.2931 124.929 48.115 124.785C48.2117 125.265 47.7873 125.196 47.9127 125.672C47.4761 125.839 47.4374 125.475 47.0943 125.174C46.9048 125.108 46.6955 125.127 46.5222 125.229C46.4593 125.766 47.1171 125.488 47.3413 125.727C47.0799 126.256 48.101 126.102 47.7098 126.557C47.8052 126.698 47.9097 126.422 47.9874 126.434C48.1901 126.467 48.1399 126.849 48.5115 126.864C48.8218 127.123 48.6435 127.429 48.88 127.694C49.2455 127.825 49.6064 127.904 49.9791 128.063C50.0513 128.482 50.6439 128.248 50.3291 128.704C50.7767 129.103 51.2968 129.412 51.8611 129.614C51.7775 129.875 52.114 129.944 51.7085 130.015C51.9209 130.221 52.1117 130.203 52.2835 129.954C52.5799 130.076 52.3698 130.354 52.5301 130.507C52.9304 130.889 53.6471 130.772 54.0896 130.738L54.089 130.738C54.1391 130.924 54.2577 131.085 54.4208 131.188C54.1634 131.309 53.9744 131.54 53.9055 131.815C54.1568 131.763 54.4356 131.978 54.6869 131.932C54.7968 132.184 54.5168 132.252 55.018 132.383C55.275 132.449 55.4663 132.304 55.6094 132.518L55.2646 132.936C55.4821 133.238 55.6446 132.886 55.8368 132.88C56.1058 133.294 57.2466 133.798 57.1478 134.484C57.8668 134.614 57.9844 135.047 58.5753 135.308C58.26 135.756 59.0967 135.62 58.7555 136.157C59.0062 136.103 59.2842 136.319 59.5355 136.273C59.7212 136.545 59.5306 136.852 59.7142 137.123C60.2334 137.273 59.6007 136.766 59.9552 136.618C60.0857 136.648 60.2173 136.68 60.3381 136.577C60.5209 136.54 60.5752 137.325 60.9846 137.283C61.3016 137.254 60.9497 137.438 61.3171 137.734C61.3974 137.63 61.2557 137.548 61.1934 137.457C61.5859 137.124 61.478 137.821 61.8712 137.488C61.8989 137.894 62.2108 137.683 62.4977 138.004L62.2404 138.317C62.5766 138.479 62.8851 138.345 63.2124 138.415C63.65 138.543 63.5413 139.204 63.9448 139.017C64.2514 139.341 63.8052 139.738 63.761 140.094L63.7596 140.095C64.0945 140.023 64.3657 139.777 64.4661 139.449C64.6814 139.703 64.8508 139.445 65.0752 139.774C64.9535 139.986 64.8006 139.908 64.884 139.794C64.5225 139.655 64.9315 140.224 64.7499 140.384C65.0338 140.344 65.3635 140.75 65.6175 140.396C65.64 140.745 66.0251 140.522 66.0542 140.931C66.282 140.969 66.4829 140.718 66.6935 140.58C66.7924 140.666 66.6695 140.774 66.6264 140.875C66.8587 141.282 66.984 140.602 67.2163 141.01L67.045 141.218L67.0449 141.22C67.3045 141.432 67.6189 141.568 67.9521 141.609C68.0681 141.766 67.8096 141.801 67.6745 141.732C67.4682 141.918 67.9943 141.96 68.0747 141.886C68.2335 142.121 68.0069 142.26 67.8543 142.581C67.8138 142.666 67.88 142.763 67.8741 142.773C67.8271 142.855 67.6714 142.796 67.5986 142.898C67.5841 142.923 67.6598 143.125 67.5301 143.192C67.4944 143.211 67.2681 142.954 67.2354 143.125C67.112 143.361 67.572 143.542 67.2048 143.802L67.5176 144.06C68.0268 144.018 67.9611 143.821 68.2245 143.413L68.2262 143.414C68.3853 143.513 68.4459 143.715 68.3667 143.884C68.7501 144.047 68.2525 143.528 68.607 143.379C69.0264 143.691 69.0735 144.037 68.8038 144.419C68.6961 144.303 68.5985 144.289 68.5081 144.352C68.3467 144.493 68.7292 144.59 68.7377 144.715C68.7495 144.905 68.0396 144.913 68.6883 145.2C68.2654 145.515 68.2797 145.687 67.9814 145.846C67.8086 145.603 67.7067 145.017 67.3531 145.33C67.2381 145.181 67.4817 144.997 67.5937 144.827C67.2605 144.705 66.9777 145.095 66.621 144.728L66.2763 145.146C65.9475 144.723 65.6946 145.096 65.3913 144.944C65.3038 145.245 65.9735 145.093 66.2098 145.442C66.0749 145.488 65.5186 145.643 65.9322 145.566C66.1326 145.84 65.5526 146.14 65.3789 145.812C65.1996 145.862 65.3277 146.092 65.312 146.108C65.2381 146.186 64.9671 146.007 64.9283 146.149C64.8896 146.291 65.0116 146.385 65.1558 146.51C64.9869 146.753 64.7457 146.254 64.5467 146.186L64.5449 146.186C64.3788 146.19 64.2163 146.238 64.0742 146.325C63.6334 146.085 63.1687 145.589 62.77 145.778C62.3317 145.83 63.0824 145.575 63.1993 145.255C62.6899 145.192 62.7321 145.071 62.2932 144.866C61.9298 144.756 61.5928 144.924 61.2168 144.682C61.4495 144.434 61.3236 144.223 61.2474 144.004C61.1458 143.955 61.0561 144.024 60.9524 143.938C60.6292 144.225 60.8369 144.463 60.4544 144.756C60.4477 144.564 60.0944 144.406 60.3935 144.181C60.2031 144.211 59.9808 143.896 59.8215 144.236C59.6955 144.392 59.9404 144.353 59.927 144.322L59.9266 144.323C59.978 144.498 59.9536 144.686 59.8587 144.842C59.7635 144.998 59.6077 145.106 59.4283 145.14C59.2102 144.913 59.4186 144.665 59.6682 144.636C59.4107 144.294 59.2316 144.758 58.9731 144.416C59.0538 144.311 58.9117 144.228 58.8498 144.138C59.3255 143.837 58.6746 143.57 59.1754 143.529C58.4902 143.362 58.9326 142.664 58.111 142.478L58.1106 142.479C57.9991 142.691 57.806 142.849 57.5757 142.916C57.4714 142.454 57.0875 142.617 56.9283 142.209L56.9287 142.208C56.6469 142.058 56.3737 141.892 56.1106 141.711C56.2937 141.548 56.1881 141.414 56.0904 141.52C55.8387 141.237 56.3565 141.187 56.474 141.479C56.4804 141.254 56.6897 141.009 56.6955 140.784C56.5931 140.798 56.49 140.769 56.4104 140.703C56.3316 140.638 56.2826 140.543 56.2765 140.439C56.218 140.407 56.1449 140.42 56.1025 140.472C56.06 140.524 56.0607 140.599 56.1044 140.649C55.8286 140.779 55.5146 140.543 55.1984 140.26C55.3056 140.247 55.3664 140.171 55.4752 140.136L55.4742 140.137C55.6087 140.084 55.7313 140.006 55.8367 139.908C55.8927 139.867 56.0414 139.875 56.0287 139.888C56.2466 139.66 56.1316 139.274 56.6489 139.346L56.6496 139.346C56.5882 139.035 56.6618 138.713 56.8522 138.46C56.4964 138.097 56.1688 138.039 55.8799 138.362C55.5541 138.023 55.976 137.968 55.4432 137.827C55.847 137.499 55.7265 137.222 56.0264 136.904C55.985 136.794 55.5555 137.127 55.5762 137.235C55.6218 137.463 55.547 137.266 55.4902 137.339C55.4147 137.439 55.2923 138.105 54.8875 138.071C54.7383 137.996 54.9752 137.861 54.9546 137.777C54.9156 137.595 54.5737 137.513 54.6235 137.327C54.3618 137.27 54.1311 137.536 53.88 137.591C53.5491 137.261 53.4971 136.865 52.9739 137.202C52.8649 137.083 53.0418 136.938 53.1265 136.801C53.2467 136.591 52.8278 135.648 52.4804 136.094C52.0669 135.908 52.622 135.632 52.3202 135.436C52.021 135.412 51.9741 136.008 52.0256 135.367C51.6627 135.229 52.1451 135.792 51.7007 135.977C51.6897 135.817 51.4654 135.68 51.5602 135.506L51.5597 135.509C51.6996 135.382 51.7218 135.17 51.6116 135.017C51.7299 134.909 51.875 135.087 52.012 135.172C52.2365 134.99 52.1687 134.835 52.2523 134.667C52.1479 134.587 52.0651 134.728 51.9751 134.79C51.6 134.575 51.7545 134.226 51.3468 134.274C51.2039 134.481 51.649 134.63 51.5934 134.827C51.3382 134.843 51.1201 135.199 50.8866 135.473L50.8855 135.474C50.7791 135.322 50.8003 135.115 50.9342 134.988C50.5544 134.824 50.8502 135.361 50.5049 135.511C50.1991 135.018 49.9867 135.466 49.7031 135.204L50.1332 134.68C50.3174 134.928 50.4486 134.6 50.6187 134.729C50.7776 134.451 50.3263 134.521 50.199 134.384C50.2079 134.389 50.3114 134.188 50.1792 134.192C49.8841 134.127 49.584 134.006 49.3124 134.181L49.3135 134.181C49.2068 133.971 49.0174 133.815 48.7907 133.751C48.794 133.605 48.8479 133.463 48.9432 133.351C48.6741 133.175 48.4984 133.761 48.7047 133.856C48.5917 134.037 48.4332 133.691 48.3039 133.701C48.1493 133.714 48.0193 134.103 47.8536 134.032L47.8539 134.033C47.8279 133.87 47.8448 133.702 47.903 133.547C47.5153 133.349 47.5365 133.715 47.3681 133.985C47.3296 133.624 47.1103 133.754 46.8439 133.555C46.7407 133.34 47.2885 133.062 46.8738 132.878C47.0888 132.582 47.1645 132.846 47.2178 132.46C47.2666 132.098 47.1293 132.242 46.9726 131.907C46.9552 131.871 47.1602 131.734 47.1446 131.697C47.0778 131.551 46.9909 131.739 46.9527 131.717C46.7814 131.639 47.0212 131.007 46.6399 131.46C46.3418 131.104 46.35 130.718 45.765 130.391L45.7653 130.39C45.7216 130.671 45.5755 130.926 45.3554 131.105C45.1618 130.751 44.904 130.456 44.5733 130.988C44.2253 130.83 44.5315 130.606 44.3281 130.435C44.0904 130.142 43.9852 130.641 43.7743 130.682C43.717 130.692 43.6245 130.513 43.5651 130.509C43.2683 130.487 42.8928 130.775 42.6294 130.792C42.4355 130.522 43.1762 130.163 43.0187 129.886C42.7017 129.467 42.7644 130.214 42.5685 130.217C42.5304 130.217 42.6216 129.417 42.2536 129.959C42.1076 129.642 41.9557 129.75 41.9037 129.318C42.3037 129.2 42.0852 128.854 42.4389 128.882C42.5204 128.689 42.2713 128.813 42.1247 128.624C42.3587 128.442 42.1401 128.302 41.9842 128.153C42.1287 127.975 42.271 127.804 42.4143 127.629C42.01 127.026 42.1848 127.944 41.8617 127.876C41.6654 127.835 42.0385 127.537 42.0148 127.477C41.9068 127.198 41.6726 127.502 41.4427 127.531C41.3229 127.547 41.1585 127.298 41.0597 127.572C40.8171 127.403 40.7962 127.212 41.004 126.999C40.5879 126.865 40.4358 126.431 39.9049 126.63C39.7432 126.421 39.828 126.188 39.5542 125.991L39.5549 125.991C39.678 125.935 39.821 125.939 39.9405 126.003C40.06 126.066 40.143 126.183 40.1639 126.318C40.3003 126.19 40.3205 125.982 40.2123 125.831C39.8517 125.858 39.9729 125.954 39.7074 125.59L39.707 125.591C39.5375 125.513 39.3362 125.573 39.2366 125.731C38.8474 125.366 38.5978 125.044 38.9157 124.415C38.7474 124.205 38.3703 124.765 38.7619 124.814C38.1585 125.159 38.6343 124.339 38.307 124.088C37.974 124.443 38.3059 124.73 38.0187 125.079C37.7155 124.927 37.997 124.74 37.582 124.544C37.391 124.453 37.373 124.522 37.0571 124.114L37.0568 124.114C36.9445 123.911 36.7967 123.73 36.62 123.579C36.4342 123.373 36.3924 123.899 36.4675 123.98C36.0967 124.217 36.2782 123.629 36.3263 123.509C36.0661 123.45 35.7485 123.589 35.7168 123.183C35.5239 123.102 35.6494 123.352 35.4588 123.497C35.437 123.309 35.2366 123.24 35.0405 123.153C34.8439 123.067 34.6018 122.951 34.4505 123.019C34.2332 122.79 34.4391 122.541 34.6908 122.514C34.33 122.103 34.0638 122.666 33.7694 122.986C33.8007 122.931 33.6319 122.754 33.6468 122.709C33.7149 122.511 33.8801 122.633 33.9233 122.586C34.1674 122.318 33.9768 122.19 34.4589 122.149C34.6082 122.086 34.3126 121.911 34.3353 121.872C34.4167 121.73 34.6481 121.88 34.719 121.831C34.9176 121.7 34.7493 121.471 34.9589 121.327C35.18 121.334 35.3146 121.791 35.2914 121.778C35.4626 121.856 35.8512 121.523 35.4139 122.055C35.8301 122.194 35.7497 121.528 35.93 121.427C35.9621 121.409 36.1962 121.665 36.2253 121.494C36.31 121.326 36.0343 121.192 35.8942 121.044L36.0663 120.834C36.0255 120.55 35.919 120.27 36.0777 119.966C35.8659 119.845 36.0329 120.19 35.8196 120.281C35.7148 120.326 35.7719 120.064 35.7998 120.089C35.6947 120.001 35.4496 120.293 35.3143 120.041C35.4824 119.895 35.3644 119.779 35.4682 119.641C35.3132 119.457 35.0567 119.768 35.1907 119.764C34.714 119.779 34.6535 119.265 34.2181 119.665C33.9358 119.329 33.7368 119.597 33.6952 119.236C33.9367 119.077 34.2418 119.57 34.4775 119.352C34.48 119.157 34.2045 119.169 34.4227 118.78C33.9398 118.7 34.3946 118.704 34.4707 118.294C34.041 118.102 34.2552 118.444 33.9351 118.732C33.7383 117.985 34.4775 117.665 35.0728 117.562C35.2558 117.016 34.9957 116.606 35.6208 116.258C35.4569 116.237 35.3145 116.41 35.1306 116.206C35.2224 115.998 35.4027 116.123 35.4941 115.979C35.5986 115.885 35.3237 115.674 35.569 115.523L35.5718 115.518ZM67.7249 144.253C67.0059 144.373 67.8579 144.777 67.7249 144.253V144.253ZM63.9145 145.681C63.9729 145.622 64.0316 145.57 64.1058 145.661L64.2779 145.451C64.1567 145.081 63.6813 145.557 63.9186 145.683L63.9145 145.681ZM62.8415 143.57C62.899 143.501 62.9562 143.431 63.0128 143.361L63.0135 143.361C63.3572 143.477 63.7298 143.475 64.0718 143.355C63.9217 143.563 64.357 143.713 64.1327 143.93C64.4097 143.99 64.2242 144.531 64.551 144.274C64.5163 143.957 64.2672 143.66 64.2674 143.34L64.2684 143.34C63.8634 143.191 63.4302 143.134 63.0008 143.174C63.3539 143.41 62.4853 143.257 62.8456 143.572L62.8415 143.57ZM58.2147 141.519C58.262 141.45 58.3012 141.382 58.1945 141.327C58.0554 141.629 57.9343 141.929 58.1831 142.195C58.5575 141.937 57.9616 141.77 58.2188 141.521L58.2147 141.519ZM58.6864 142.44L58.4772 142.266L58.3051 142.476L58.5151 142.648L58.6864 142.44ZM59.0312 142.02C59.1287 142.154 58.839 142.791 59.2778 142.573C59.1728 142.478 59.3058 142.372 59.4698 142.554C59.8843 142.18 59.3187 141.865 59.0366 142.019L59.0312 142.02ZM60.16 142.775C60.2178 142.62 60.2347 142.453 60.208 142.289C60.0868 142.416 59.9084 143 60.1701 142.776L60.16 142.775ZM60.4247 143.518C60.737 143.2 60.3614 142.917 60.2842 143.047C60.2582 143.102 60.4482 143.441 60.4349 143.52L60.4247 143.518ZM60.6455 142.822L60.9028 142.51C60.7271 142.341 60.5698 142.41 60.4328 142.649L60.6455 142.822ZM61.6037 140.805L61.8138 140.977L61.9864 140.769L61.7772 140.595L61.6037 140.805ZM60.1507 138.732C60.2787 138.87 60.4884 138.892 60.6416 138.785C60.5151 138.652 60.3117 138.63 60.1599 138.732L60.1507 138.732ZM59.1975 138.826C59.5003 139.297 59.7049 138.763 59.9598 138.752L59.542 138.407C59.4362 138.549 59.3219 138.687 59.2081 138.827L59.1975 138.826ZM58.3903 140.446C58.3903 140.446 58.1675 140.411 58.1138 140.569C58.0982 140.613 58.2676 140.786 58.2364 140.846C58.4818 140.68 58.6156 140.965 58.8281 140.981C58.9124 140.987 59.0036 140.722 59.1053 140.858C58.9137 141.355 59.477 141.494 59.579 141.774C59.8155 141.559 60.0571 141.411 60.3238 141.51C60.2828 141.979 61.006 142.01 61.2649 142.283L61.266 142.283C61.5432 142.203 61.827 142.143 62.1139 142.105C62.0058 142.276 62.2886 142.409 62.445 142.555C62.7044 142.306 62.4435 142.103 62.2848 141.897L62.2855 141.898C62.42 141.77 62.4406 141.563 62.3342 141.412C62.1126 141.573 61.8203 141.602 61.5712 141.486C61.4888 141.42 61.5179 141.236 61.4486 141.208C61.4096 141.192 61.2686 141.366 61.171 141.332C61.0515 141.293 60.9742 141.121 60.8569 141.074C61.1293 140.693 60.922 140.361 60.6601 140.034C60.3502 140.802 59.8905 140.037 59.4792 139.763C59.1284 139.94 59.1731 140.545 58.9631 140.392C58.9237 140.109 58.9694 139.813 58.7844 139.542C58.3535 139.819 58.511 140.183 58.3993 140.443L58.3903 140.446ZM57.4496 139.672C57.613 139.291 57.0765 139.588 56.9254 139.241C56.7865 139.459 56.6177 139.375 56.4752 139.573C56.8906 139.613 56.7431 139.994 57.084 139.898L57.0847 139.898C57.0414 139.847 57.0407 139.772 57.0831 139.72C57.1263 139.669 57.2 139.656 57.2581 139.689C57.0545 139.902 57.5899 140.042 57.6955 140.225C57.6497 140.343 57.4683 140.929 57.836 140.695C57.7281 140.576 57.8558 140.434 57.99 140.295C57.3052 140.041 58.3012 139.622 57.8966 139.341C57.5383 139.265 57.8387 139.808 57.4613 139.67L57.4496 139.672ZM56.9386 138.374C57.1254 138.526 57.3141 139.156 57.6707 138.977C57.4357 138.634 58.0195 138.823 58.1008 138.453C57.7455 137.937 57.2599 138.601 57.1947 138.063L56.9386 138.374ZM56.6913 137.82C56.4069 137.504 56.0651 137.777 56.3278 138.048L56.3285 138.048C56.4227 137.93 56.5553 137.849 56.7031 137.819L56.6913 137.82ZM56.3588 137.369L56.5681 137.543L56.7401 137.333L56.5301 137.161L56.3588 137.369ZM54.8574 135.784L55.1715 136.042C55.3967 135.828 55.4712 135.628 55.3063 135.45C55.1679 135.565 55.0045 135.529 54.8683 135.784L54.8574 135.784ZM53.7197 136.954C53.7369 136.826 54.1088 136.997 54.1027 136.913C54.0975 136.768 53.5208 136.48 53.7314 136.952L53.7197 136.954ZM53.4278 134.965C53.247 135.075 53.0568 135.101 52.8745 135.211C53.0631 135.418 52.8471 135.663 53.0361 135.87C53.157 135.349 53.3167 135.669 53.6563 135.328L53.6567 135.327C53.5452 135.234 53.469 135.104 53.4404 134.96L53.4278 134.965ZM53.526 133.992L53.736 134.164L53.9081 133.954L53.6981 133.782L53.526 133.992ZM50.541 131.01C50.7218 130.883 50.9441 131.192 51.0944 130.763C50.9329 130.432 50.3533 130.731 50.5532 131.006L50.541 131.01ZM47.8827 133.391C48.0758 133.139 48.889 132.341 48.2728 132.483C48.3737 132.768 47.7107 132.934 47.8965 133.382L47.8827 133.391ZM45.9492 129.343C46.2297 128.838 46.4237 129.58 46.4535 129.583C46.5639 129.595 46.7848 129.284 46.9037 129.252C47.1109 129.199 47.33 129.249 47.4936 129.387C47.7461 129.041 47.9339 128.702 47.5921 128.415C47.2488 128.672 47.7135 128.851 47.3704 129.109C47.1292 128.971 46.9192 129.09 46.694 129.079C46.3272 128.923 46.5443 128.709 46.2566 128.544L46.2562 128.544C46.1042 128.601 45.9849 128.72 45.9286 128.872C45.8724 129.024 45.8854 129.193 45.9631 129.335L45.9492 129.343ZM44.9648 130.113C45.2017 130.233 45.4465 130.446 45.6425 130.143L45.6421 130.144C45.5262 130.053 45.4453 129.925 45.4132 129.781C45.2892 129.99 45.1211 129.906 44.9783 130.105L44.9648 130.113ZM128.3 103.029C128.358 103.087 128.41 103.147 128.32 103.221L128.53 103.393C128.901 103.268 128.425 102.792 128.3 103.029V103.029ZM141.881 89.2908C142.106 89.075 142.179 88.8763 142.016 88.6991C141.792 88.9146 141.718 89.1147 141.881 89.2908ZM141.093 88.1158C141.19 88.2332 141.342 88.2919 141.492 88.2694C141.594 88.2794 141.766 88.2112 141.876 88.2287C141.825 87.721 141.369 88.0641 141.093 88.1159L141.093 88.1158ZM135.37 96.5648C135.508 96.6803 135.316 96.8277 135.41 96.9499C135.528 96.6973 136.186 97.1851 135.964 96.7026C135.802 97.0465 135.525 96.218 135.37 96.5642L135.37 96.5648ZM136.454 94.8258C136.53 94.7081 137.079 94.9854 136.817 94.5984C136.746 94.793 136.197 94.5156 136.454 94.8258ZM135.679 95.7682L135.68 95.7675C135.814 95.6404 135.835 95.4328 135.728 95.2813C135.6 95.4533 135.413 95.6311 135.678 95.7664L135.679 95.7682ZM131.818 99.6033C132.047 99.3446 132.357 99.8614 132.563 99.3379C132.331 99.0513 131.674 99.3348 131.818 99.6033ZM135.671 91.7196C135.579 92.0682 136.348 92.0025 136.156 91.769C136.011 91.9446 135.816 91.5924 135.669 91.7237L135.671 91.7196ZM132.203 94.6566C132.491 94.9742 132.745 94.9501 132.965 94.5823C132.671 94.2259 132.436 94.4472 132.2 94.6607L132.203 94.6566ZM127.914 102.005C127.941 102.255 128.19 102.464 128.418 102.245C128.244 102.137 128.06 101.894 127.913 102.01L127.914 102.005ZM129.909 96.805C129.604 96.6096 130.49 96.2999 129.94 96.1273C129.776 96.3201 129.607 96.9833 129.907 96.8091L129.909 96.805ZM119.089 108.254C119.205 108.345 119.285 108.474 119.317 108.617C119.38 108.107 120 108.63 119.767 108.286C119.543 108.243 119.314 108.233 119.087 108.258L119.089 108.254ZM115.912 107.214C116.027 107.511 116.545 107.46 116.295 107.173C116.172 107.321 116.025 107.128 115.906 107.22L115.912 107.214ZM110.403 113.911L110.612 114.082L110.784 113.872L110.576 113.701L110.403 113.911ZM113.279 107.855C113.338 107.914 113.389 107.973 113.299 108.047L113.509 108.219C113.875 108.1 113.399 107.624 113.273 107.861L113.279 107.855ZM109.021 114.524C109.163 114.774 109.288 114.488 109.405 114.483C109.521 114.478 109.614 114.685 109.7 114.55L109.701 114.55C109.585 114.459 109.505 114.331 109.471 114.188C109.312 114.314 109.149 114.278 109.013 114.533L109.021 114.524ZM102.674 117.549C102.665 117.544 103.029 117.248 103.036 117.32C102.985 116.871 102.476 117.45 102.667 117.557L102.674 117.549ZM100.373 118.639C100.36 118.794 100.056 119.09 100.428 119.21C100.982 119.032 101.015 118.785 101.202 118.269C100.783 117.792 100.728 118.55 100.544 118.43C100.407 118.315 100.599 118.167 100.503 118.046C100.16 118.219 100.384 118.443 100.365 118.648L100.373 118.639ZM101.844 114.936C101.95 115.023 101.898 115.123 101.968 115.213C102.092 115.041 102.279 114.862 102.016 114.727C101.949 114.803 101.892 114.873 101.834 114.943L101.844 114.936ZM99.3856 118.353C99.2953 118.415 99.1976 118.402 99.0903 118.285L98.919 118.494C99.0338 118.585 99.1147 118.713 99.1468 118.857C99.2471 118.693 99.4901 118.508 99.375 118.36L99.3856 118.353ZM98.9664 118.007L98.9674 118.007C99.1203 117.898 99.3311 117.92 99.4577 118.059L99.7157 117.745C99.477 117.276 99.3595 118.048 99.1428 117.8C99.2219 117.662 99.0705 117.551 98.9153 117.439C98.597 117.665 98.9517 117.824 98.9568 118.014L98.9664 118.007ZM97.2057 119.718C97.3119 119.805 97.2607 119.905 97.3294 119.995C97.4549 119.821 97.6417 119.644 97.3774 119.508L97.2057 119.718ZM95.6934 121.982C95.8078 122.261 95.9888 121.569 95.8474 121.582C95.7066 121.594 95.6695 121.951 95.6859 121.99L95.6934 121.982ZM94.7457 120.149C95.0027 120.488 95.2148 120.357 95.4598 120.558L95.4612 120.559C95.5423 120.484 95.5694 120.367 95.5287 120.264C95.504 120.145 95.735 120.235 95.7207 120.244C95.6803 120.272 95.6466 120.462 95.7405 120.436L95.7412 120.436C95.8756 120.387 95.9801 120.279 96.0238 120.142C96.0671 120.007 96.0446 119.858 95.963 119.74C95.6989 119.919 95.217 120.006 95.1808 119.624C94.966 119.904 95.0973 120.12 94.7382 120.157L94.7457 120.149ZM91.1612 123.006C90.8497 123.323 90.8715 123.611 91.1498 123.873C91.2653 123.733 91.379 123.593 91.4938 123.455L91.4934 123.456C91.3299 123.353 91.2113 123.192 91.1612 123.006L91.1612 123.006ZM90.7429 122.662C90.964 122.851 91.663 123.009 91.5059 122.588C91.2744 122.808 90.994 122.558 90.7466 122.665L90.7429 122.662ZM90.8854 120.141L90.885 120.142C91.02 120.014 91.0412 119.808 90.9348 119.656C90.8127 119.831 90.6221 120.013 90.8865 120.147L90.8854 120.141ZM89.0775 122.338C89.3262 122.568 89.5702 122.776 89.774 122.56C89.5277 122.337 89.2833 122.13 89.0758 122.349L89.0775 122.338ZM83.4866 124.231L83.4869 124.232C83.6284 124.101 83.7145 123.92 83.7279 123.727C83.4456 123.468 83.2213 123.808 82.9649 123.801L83.4866 124.231ZM82.9521 124.668C82.8365 124.797 82.6983 124.702 82.5886 124.895C82.714 125.277 83.1898 124.8 82.9538 124.674L82.9521 124.668ZM82.1129 125.906C81.7547 125.971 82.0221 126.176 81.6619 126.239L82.1847 126.668C82.5021 126.39 82.1646 126.163 82.1136 125.907L82.1129 125.906ZM83.4971 125.292C83.3908 125.206 83.4421 125.104 83.3734 125.015C83.2874 125.119 83.1869 125.069 83.0962 125.137C83.2025 125.223 83.1516 125.324 83.2199 125.414C83.305 125.313 83.4041 125.364 83.4954 125.296L83.4971 125.292ZM86.0737 124.078L86.0743 124.079C86.2086 123.951 86.2291 123.744 86.1224 123.593C85.9953 123.768 85.8077 123.947 86.072 124.083L86.0737 124.078ZM84.1038 122.634C84.1467 123.179 84.5549 123.681 84.3527 124.243C84.7235 124.504 84.6319 124.664 84.7034 124.883C84.843 125.32 84.9526 125.229 84.5694 125.473C85.1024 125.785 85.0012 125.28 85.3808 124.912C85.652 124.846 85.9963 125.094 86.1623 125.03C86.2499 124.995 86.3285 124.724 86.4203 124.715C86.5477 124.702 86.7102 125.052 86.8205 124.869C86.701 124.512 86.8079 124.487 86.3831 124.334C86.1854 124.279 86.0371 124.724 85.8304 124.581C86.2413 124.252 85.4437 124.041 85.2689 123.769C85.3361 123.474 85.4565 123.174 85.2817 122.902C85.0466 123.118 84.8036 123.265 84.5369 123.166C84.9634 122.986 84.2246 122.452 84.1026 122.638L84.1038 122.634ZM83.3106 123.385C83.7496 122.666 83.5103 123.664 83.8016 123.436C83.6742 123.256 83.9838 123.034 83.5546 122.883C83.4206 123.012 82.9079 123.63 83.3093 123.389L83.3106 123.385ZM81.367 126.175C81.1939 126.05 81.0164 125.864 80.8808 126.127L81.0895 126.298C81.1754 126.194 81.277 126.245 81.3669 126.177L81.367 126.175ZM82.2758 124.643L82.2769 124.642C82.4125 124.515 82.4331 124.308 82.3267 124.156C82.2035 124.332 82.0135 124.51 82.2757 124.645L82.2758 124.643ZM82.6811 122.871C82.335 123.02 82.6313 123.557 82.2518 123.394C82.1137 123.278 82.3068 123.131 82.2111 123.01C81.8742 123.034 81.9036 123.448 82.1804 123.688C82.2701 123.625 82.3677 123.638 82.475 123.755L82.4761 123.755C82.7277 123.536 82.81 123.18 82.681 122.873L82.6811 122.871ZM82.8287 121.412C83.0334 121.542 83.2664 121.949 83.4186 121.547L83.4197 121.547C83.2616 121.398 83.0349 121.347 82.8279 121.414L82.8287 121.412ZM83.2378 120.698C83.463 120.484 83.5361 120.284 83.3733 120.107L83.3743 120.107C83.2267 120.266 83.1768 120.493 83.2444 120.699L83.2378 120.698ZM79.1065 125.72C79.0263 125.86 78.8446 126.003 78.9526 126.12C79.011 126.061 79.0704 126.009 79.1446 126.1C79.0965 126.159 79.1318 126.289 79.2487 126.186C79.1221 126.043 79.2157 125.873 79.1082 125.722L79.1065 125.72ZM80.8694 122.084L80.8709 122.083C80.7216 122.24 80.6699 122.467 80.7365 122.674C80.8714 122.658 80.9818 122.559 81.0119 122.427C81.0423 122.295 80.9862 122.159 80.8718 122.086L80.8694 122.084ZM76.7806 125.561C76.8637 125.189 77.4639 125.574 77.2308 125.23C77.1724 125.289 77.1137 125.34 77.0395 125.25C77.2393 124.974 76.7087 124.931 76.6212 124.906C76.627 124.649 76.8435 124.371 76.7364 124.125L76.7375 124.125C76.4477 124.252 76.264 124.542 76.2739 124.859C76.2842 125.176 76.4857 125.454 76.7825 125.564L76.7806 125.561ZM75.4313 123.575L75.1739 123.883C75.069 123.799 75.1192 123.697 75.051 123.607C74.8851 123.869 74.7062 123.982 74.4976 123.853C74.6172 123.618 74.4922 123.408 74.7187 123.159C73.818 122.687 74.2445 123.688 74.1159 123.891C74.2343 123.706 73.2522 123.906 73.7541 124.118C73.9575 123.898 74.2341 124.439 74.4682 124.527C74.7205 124.098 75.5053 124.049 75.4336 123.577L75.4313 123.575ZM75.4575 124.824C75.1964 124.457 74.999 124.716 74.7812 124.794C74.909 124.941 74.8158 125.11 74.9217 125.265L74.9228 125.264C75.1534 125.198 75.3472 125.04 75.4597 124.828L75.4575 124.824ZM76.3789 122.423C76.5074 122.571 76.4138 122.741 76.5194 122.894C76.9178 122.6 76.721 122.132 76.3808 122.426L76.3789 122.423ZM76.13 120.814C75.8896 121.371 76.3115 121.266 76.6024 121.735L76.6041 121.735C76.6988 121.597 76.8644 121.525 77.0303 121.549C77.1968 121.574 77.3341 121.691 77.3846 121.851C77.7033 121.563 77.3646 121.34 77.3107 121.088C76.9997 121.46 77.046 121.489 76.7574 121.335C76.9268 121.432 76.8283 120.551 76.5292 120.973C76.6286 121.092 76.5961 121.224 76.5699 121.356L76.5689 121.355C76.3541 121.244 76.1948 121.048 76.1279 120.815L76.13 120.814ZM73.837 122.963C74.3722 122.981 74.2492 122.368 74.7371 122.299L74.7389 122.3C74.6792 122.456 74.6611 122.625 74.6863 122.79C74.8905 122.25 75.1787 122.574 75.432 122.525C75.0979 122.27 75.4035 121.951 74.8712 121.714C74.6847 121.892 74.798 122.041 74.6309 122.219C74.3894 122.041 74.2209 122.625 74.0097 122.76L74.0104 122.76C73.9536 122.729 73.8827 122.742 73.8411 122.791C73.7984 122.84 73.7961 122.912 73.8348 122.963L73.837 122.963ZM72.6485 121.631C72.3337 121.802 72.429 121.826 72.0269 122.173C72.3658 122.592 73.209 122.031 72.6472 121.635L72.6485 121.631ZM73.0042 120.346C73.0966 120.771 73.0816 121.545 73.7555 121.139C73.3015 121.095 73.4439 120.495 73.5082 120.585C73.3971 120.435 73.1064 120.268 73.003 120.35L73.0042 120.346ZM69.9985 125.065L69.8265 125.275L70.0351 125.446L70.2078 125.238L69.9985 125.065ZM72.21 121.096C72.5402 120.871 72.2865 120.704 72.5356 120.486C71.9736 119.845 71.5934 120.808 72.2131 121.103L72.21 121.096ZM71.1244 121.776C71.3356 121.984 71.5261 121.965 71.6958 121.721C71.471 121.424 71.3076 121.774 71.1215 121.784L71.1244 121.776ZM71.6858 120.666C71.9835 120.336 71.3514 120.297 71.3358 120.025L70.9057 120.549C71.3192 120.867 71.4876 120.89 71.6811 120.668L71.6858 120.666ZM70.7038 121.436C70.7868 121.397 71.2952 121.246 71.0478 121.017C70.8033 121.13 70.4303 121.057 70.7032 121.44L70.7038 121.436ZM68.8895 122.574C69.1142 122.905 69.2821 122.65 69.499 122.9C69.7488 122.507 69.3237 122.539 69.8242 122.291C69.426 121.985 69.436 122.226 69.2708 122.538C69.1323 122.449 68.9953 122.369 68.8889 122.579L68.8895 122.574ZM68.194 122.353C68.3314 122.468 68.1389 122.616 68.2347 122.737C68.3833 122.623 68.5487 122.656 68.6849 122.406L68.4763 122.234C68.3842 122.335 68.2814 122.288 68.1938 122.357L68.194 122.353ZM69.0135 120.923C68.7791 120.788 68.9222 120.61 68.8743 120.453C68.6058 120.603 68.7597 121.155 69.0163 120.929L69.0135 120.923ZM67.8197 121.52L67.8214 121.521C67.9373 121.611 68.0178 121.74 68.0488 121.884C68.1468 121.45 68.488 121.593 68.271 121.189C68.1432 121.296 68.1006 121.157 68.061 121.017C67.8773 121.201 67.9909 121.35 67.8232 121.527L67.8197 121.52ZM67.3402 122.53C67.2733 122.484 67.2043 122.444 67.1503 122.551C67.3325 122.971 67.8705 122.237 67.6852 122.113C67.5227 122.254 67.3961 121.998 67.371 121.855C67.0064 122.121 67.4671 122.301 67.3437 122.537L67.3402 122.53ZM55.838 124.997C55.2293 124.896 55.5348 124.391 55.45 123.976C55.2436 124.164 54.9976 123.949 54.7918 124.137C54.8849 124.256 54.9016 124.515 54.7243 124.432C54.4899 124.298 54.633 124.119 54.5838 123.961C54.309 124.184 54.144 124.214 54.2582 124.571C54.4127 124.347 54.5803 124.794 54.7631 124.811C54.8474 124.817 54.9412 124.551 55.04 124.687C55.1961 124.833 54.9033 125.021 55.1805 125.158C55.3202 125.271 55.4267 125.053 55.5642 125.117C55.6648 125.171 55.7587 125.139 55.8415 125.004L55.838 124.997ZM62.0801 121.887C62.0692 122.011 62.2513 122.003 62.2031 122.164C62.2208 122.106 61.7451 122.302 62.1362 122.459C62.4284 122.513 62.6973 121.578 63.2211 121.779L63.2224 121.78C63.1447 121.951 63.2045 122.152 63.3636 122.251C63.8298 121.552 62.8505 121.739 62.5083 121.371C62.4658 121.554 62.1068 121.709 62.0836 121.894L62.0801 121.887ZM60.4395 120.89C60.6985 121.119 60.1818 121.428 60.7042 121.633C60.4625 121.978 60.8078 122.265 60.9891 122.57C61.2778 122.369 61.4472 122.225 61.3994 121.854C61.0978 122.065 61.0259 121.554 60.9798 121.509C60.9866 121.513 60.6173 121.562 60.7698 121.337C60.8737 121.382 60.9637 121.35 61.0469 121.214C61.0716 121.563 61.455 121.34 61.4847 121.749C61.9889 121.324 60.7313 120.435 60.4464 120.898L60.4395 120.89ZM58.3214 121.775C58.4034 121.405 58.9854 121.592 58.7515 121.251C58.5067 121.405 58.0202 121.405 58.3214 121.775ZM57.9818 120.267C57.2798 120.527 58.1168 120.803 57.9818 120.267V120.267ZM56.2306 123.037C56.3395 123.219 56.3662 123.408 56.4765 123.591C56.5956 123.482 56.7027 123.279 56.8394 123.362L56.839 123.363C56.9711 123.671 56.8891 124.029 56.6367 124.25C56.7378 124.575 57.0287 124.335 57.227 124.384C57.4496 124.453 57.6561 124.563 57.8372 124.71C57.9099 124.778 57.8574 124.901 57.8574 124.901C57.9914 125.046 58.4656 124.975 58.2753 125.246C58.1406 125.177 57.8824 125.212 57.9984 125.369C58.3166 125.357 58.5415 125.123 58.8482 125.19C58.813 125.182 58.8198 125.434 58.9523 125.276C58.8893 125.186 58.9026 125.089 59.0198 124.981C59.2256 125.477 59.4243 125.182 59.8194 125.288C59.9574 125.367 60.1008 125.551 60.2182 125.441C60.1563 125.351 60.0149 125.268 60.0952 125.165C60.1755 125.061 60.2822 125.109 60.3728 125.041C60.1491 124.73 59.9871 125.081 59.7815 124.906C59.7577 124.684 59.5071 124.488 59.2391 124.286C59.1225 124.396 59.0133 124.597 58.877 124.514C58.9944 124.309 58.4746 124.343 58.6297 123.96C58.7693 124.073 58.8765 123.856 59.0133 123.919C59.1195 124.007 59.0697 124.108 59.1366 124.197C59.3567 124.147 59.5559 123.894 59.7759 123.846C59.2573 123.511 59.1163 123.988 59.0808 123.624L59.0819 123.624C59.09 123.363 58.9557 123.119 58.7315 122.986C58.8664 122.858 58.887 122.651 58.7795 122.499C58.4318 122.651 58.5661 122.872 58.3293 122.83C58.216 122.681 58.2494 122.515 57.9988 122.381C57.8503 122.505 57.6705 122.311 57.5134 122.331C57.3957 122.442 57.2865 122.643 57.1499 122.559C56.8691 122.296 56.5818 122.753 56.5411 122.233C56.1535 122.561 56.8556 122.982 56.2283 123.041L56.2306 123.037ZM56.513 120.987C56.3722 121.087 56.2691 120.958 56.13 121.028C56.7218 121.497 56.7926 121.101 57.1682 120.83C56.9953 120.587 56.8952 120.001 56.5416 120.314C56.6624 120.498 56.6937 120.861 56.5079 120.995L56.513 120.987ZM55.1173 122.471C55.6571 122.14 55.6137 123.166 56.0409 123.054C55.8638 122.631 55.8956 122.083 55.3569 121.965C55.2428 122.142 54.9985 122.326 55.1138 122.477L55.1173 122.471ZM53.3977 124.564C53.4102 124.854 53.4705 125.14 53.5754 125.412L53.9201 124.994C53.9016 124.886 53.62 124.346 53.3928 124.57L53.3977 124.564ZM54.5406 121.468C54.7904 121.728 54.9925 121.467 55.1974 121.307C54.9047 121.088 54.4937 121.143 54.5357 121.474L54.5406 121.468ZM54.6384 120.496C54.4824 120.353 54.3151 120.74 54.5517 120.6C54.8389 120.68 54.8832 120.104 54.6192 120.304C54.6758 120.37 54.7258 120.429 54.6331 120.502L54.6384 120.496ZM51.9145 123.167C52.3221 123.352 52.1021 123.598 52.2653 123.806L52.2649 123.807C52.4156 123.699 52.6233 123.72 52.7503 123.856C52.3809 124.181 52.7979 124.429 53.1206 124.687C53.4455 124.27 52.9804 123.93 52.6284 123.58L52.6277 123.579C52.6849 123.424 52.7018 123.257 52.6758 123.093C52.4521 123.472 52.1211 122.71 51.9081 123.175L51.9145 123.167ZM49.6557 122.713C49.4736 122.291 48.9355 123.028 49.1212 123.15C49.2729 122.789 49.4867 123.007 49.6504 122.719L49.6557 122.713ZM50.4494 121.962C50.4902 121.976 50.4247 121.743 50.3264 121.685C50.2861 121.662 50.0989 121.804 50.0318 121.618L50.0303 121.619C49.8248 121.834 49.7139 122.122 49.7235 122.419C49.913 122.275 49.8398 122.552 50.0363 122.676C50.3272 122.524 50.6445 122.428 50.9717 122.394C51.099 122.574 50.7901 122.796 51.2187 122.946C51.6524 122.75 51.6046 122.219 51.944 122.491C52.0325 122.194 52.4544 121.863 51.9554 121.624C51.6863 121.823 51.4598 122.489 51.1622 122.375C51.0053 122.23 51.2996 122.041 51.023 121.905C50.7708 121.885 50.6053 122.024 50.4441 121.968L50.4494 121.962ZM50.1189 121.512C50.4767 120.976 50.4117 121.419 50.5185 121.664C50.6005 121.294 51.1827 121.483 50.9478 121.141C50.6516 121.219 49.7752 120.954 50.1132 121.52L50.1189 121.512ZM48.188 123.431C48.285 122.959 48.9282 123.324 48.7233 122.994C48.6043 123.102 48.4616 122.974 48.3231 122.84C48.0911 123.063 48.018 123.264 48.1816 123.439L48.188 123.431ZM43.7677 129.445C43.9051 129.56 43.7126 129.707 43.8084 129.828C43.8987 129.766 43.9964 129.779 44.1041 129.895C44.4597 129.547 44.046 129.322 43.7613 129.453L43.7677 129.445ZM45.108 127.389C44.8988 127.552 44.6536 127.333 44.4687 127.74C44.7483 127.886 45.1734 127.972 45.2007 128.343C45.318 128.233 45.4272 128.031 45.5629 128.114C45.7944 127.596 45.4798 127.352 46.1283 127.001C45.7187 126.486 45.4122 127.001 45.1015 127.397L45.108 127.389ZM47.6391 121.751C47.6926 121.972 47.8125 122.184 47.8003 122.411C47.5528 122.209 47.6035 122.728 47.841 122.795L47.8395 122.796C47.9213 122.474 48.1422 122.206 48.4423 122.064C48.2247 121.857 47.9331 121.748 47.634 121.76L47.6391 121.751ZM42.1372 129.507C42.2936 129.915 42.7978 129.292 42.5882 129.175L42.5874 129.176C42.4841 129.344 42.3209 129.465 42.1315 129.516L42.1372 129.507ZM41.8816 124.911C41.7098 124.786 41.531 124.599 41.3961 124.863L41.6047 125.034C41.6853 124.938 41.7873 124.988 41.8758 124.919L41.8816 124.911ZM44.0033 122.972C43.8742 123.177 43.467 123.409 43.8686 123.562C44.0881 123.357 44.1592 123.16 43.9975 122.981L44.0033 122.972ZM47.0399 120.559L46.8313 120.387C46.7737 120.456 46.7165 120.526 46.6586 120.595L46.8686 120.767C46.92 120.708 46.9758 120.637 47.0341 120.567L47.0399 120.559ZM47.5883 119.254C47.6801 119.863 48.2223 119.128 47.5883 119.254V119.254ZM46.6878 119.918C47.1591 120.273 47.0285 119.894 47.3289 119.568C46.9164 119.215 46.8285 119.614 46.6861 119.923L46.6878 119.918ZM43.3124 121.894C43.5882 122.094 43.5024 122.326 43.663 122.535C43.8703 122.095 44.1196 122.308 44.1492 122.583C44.4092 122.471 44.1223 121.976 44.4932 122.165C44.4164 122.525 44.6435 122.856 44.8817 123.185C45.0681 123.007 44.9531 122.857 45.1222 122.681C44.9803 122.534 44.7043 122.4 44.7897 122.23L44.7904 122.231C45.1538 122.094 45.4923 121.897 45.7919 121.652C45.5712 121.321 45.6395 120.961 45.213 120.65C45.1231 120.712 45.0399 120.854 44.9365 120.773L44.9376 120.773C44.6852 120.993 44.6033 121.35 44.7343 121.658C44.9325 121.715 45.0809 121.269 45.2877 121.412C45.2009 121.517 45.27 121.606 45.2201 121.707C44.9312 121.757 44.6793 122.087 44.4766 121.972C44.4678 121.967 44.5305 121.7 44.3537 121.695C44.2385 121.692 44.1254 122.094 43.9901 121.923C44.0533 121.698 44.3832 121.405 43.8496 121.452C44.1754 121.959 43.5513 121.618 43.3123 121.894L43.3124 121.894ZM41.7524 121.664C42.0936 122.049 42.9685 123.486 43.1834 122.483C43.0036 122.282 42.8591 122.454 42.6931 122.431C42.8187 122.258 43.0054 122.081 42.7425 121.946C42.5509 122.097 42.6781 122.342 42.4838 122.26C41.9448 121.96 43.1564 121.49 42.6687 121.183C42.3081 121.221 42.5749 121.424 42.2385 121.707L42.2389 121.706C42.082 121.649 41.9143 121.633 41.7502 121.66L41.7524 121.664ZM70.6158 99.7914C70.6641 99.6548 70.7507 99.7825 70.8071 99.7712C71.126 99.7279 71.0764 99.2647 70.8593 99.281C70.7284 99.2986 70.5154 99.7639 70.6158 99.7914L70.6158 99.7914ZM71.2765 97.7083C71.5116 98.1154 71.8596 97.2355 71.4308 97.3075C71.2757 97.3312 71.2509 97.6564 71.2765 97.7083ZM68.7426 97.3766C68.8003 97.3171 68.8597 97.2658 68.9339 97.3564C68.9911 97.2867 69.0473 97.2172 69.1052 97.1478C68.8547 96.918 68.942 96.6785 68.6009 96.9079C68.833 97.0445 68.6934 97.2186 68.7449 97.3743L68.7426 97.3766ZM64.611 102.399C64.7678 102.893 65.2775 102.745 65.5184 102.789C65.457 102.777 65.5659 103.077 65.7083 102.768C65.8217 102.629 65.6034 102.522 65.6676 102.384C65.3073 102.269 64.9339 102.073 64.6132 102.396L64.611 102.399ZM63.8161 100.166C63.7559 100.444 63.2139 100.259 63.4706 100.585C63.5566 100.543 64.0653 100.393 63.8183 100.164L63.8161 100.166ZM63.7555 101.52C63.8128 101.45 63.8689 101.381 63.9268 101.312C64.2781 101.643 64.6118 101.756 64.9173 101.599C64.9415 101.353 64.6598 101.437 64.6031 101.341C64.5465 101.245 64.7361 100.962 64.4626 100.871C64.0475 101.012 63.3766 100.868 63.7582 101.517L63.7555 101.52ZM56.7026 108.175C56.9221 108.41 56.3569 108.721 56.7761 108.937C57.1932 108.611 57.5902 108.292 57.3396 107.828C57.1476 108.091 56.9138 108.009 56.7055 108.173L56.7026 108.175ZM55.7346 108.074C55.8903 108.484 56.3958 107.861 56.1848 107.743C56.032 107.856 55.8687 107.818 55.7346 108.074ZM54.6282 108.569L54.8368 108.74L55.0089 108.53L54.8002 108.359L54.6282 108.569ZM51.79 110.096C52.051 110.464 52.2331 110.004 52.4664 110.125C52.4205 110.194 52.38 110.262 52.4866 110.317C52.5972 110.146 52.8422 109.962 52.7265 109.812C52.4278 110.041 52.0736 109.712 51.7901 110.096L51.79 110.096ZM48.4366 109.266C48.434 109.318 48.6277 109.387 48.6453 109.438C48.6532 109.46 48.5897 109.666 48.7504 109.525C48.7222 109.549 48.7254 109.15 48.7097 109.141C48.6233 109.191 48.5317 109.232 48.4374 109.265L48.4366 109.266ZM36.576 117.931L36.5764 117.93C36.2371 118.03 35.889 118.095 35.5369 118.127C35.8448 118.279 36.6543 118.491 36.5748 117.928L36.576 117.931ZM35.7159 118.977L36.1342 119.322C36.4356 118.995 35.9816 118.503 35.7151 118.972L35.7159 118.977ZM36.8447 119.732L36.6354 119.559C36.5192 119.687 36.3816 119.593 36.2719 119.786L36.5867 120.045L36.8447 119.732ZM37.343 118.913L37.3434 118.912C37.1904 119.023 36.9789 119 36.8524 118.862C36.7409 119.074 36.5489 119.231 36.3183 119.298C36.3934 119.341 36.4477 119.435 36.5269 119.469C36.6954 119.546 36.6485 119.416 36.8041 119.347C36.9137 119.298 36.9092 119.441 36.8908 119.241C36.883 119.161 37.2318 119.232 37.2745 119.201C37.354 119.155 37.4176 118.96 37.3449 118.911L37.343 118.913ZM35.6624 122.442C34.9611 122.703 35.7968 122.978 35.6624 122.442V122.442ZM37.977 118.564C38.0926 118.435 38.2301 118.529 38.3405 118.337C38.063 118.129 37.8158 118.227 37.5576 118.22C37.7267 118.46 37.644 118.725 38.0138 118.946C38.4743 118.547 37.7441 118.856 37.9845 118.562L37.977 118.564ZM38.5985 118.022C38.6139 117.926 38.1893 117.78 38.3711 117.659C38.4394 117.706 38.5066 117.746 38.5624 117.639C38.3536 117.258 37.7502 117.71 37.9231 117.989C38.1213 117.655 38.5633 118.271 38.6058 118.019L38.5985 118.022ZM38.3787 121.701C37.9327 121.553 38.5784 121.296 38.1321 121.148C37.9304 121.327 38.1024 121.472 38.0827 121.633C37.8073 121.856 37.6429 121.886 37.7571 122.243C37.8911 121.988 38.1155 121.795 38.3859 121.698L38.3787 121.701ZM40.6373 121.094L40.4639 121.303C40.4195 121.407 40.2986 121.512 40.3971 121.599C40.5076 121.428 40.7523 121.243 40.6373 121.094ZM41.2955 120.934C41.4612 120.662 41.5589 120.395 41.4115 120.151C41.296 120.291 41.1822 120.431 41.0667 120.571L41.0674 120.571C41.1821 120.663 41.2624 120.79 41.2955 120.934L41.2955 120.934ZM42.5652 119.172C42.7819 119.312 42.6983 119.48 42.8963 119.622C42.9898 119.484 43.0684 119.349 42.8556 119.239C42.9491 119.101 43.0277 118.965 42.8145 118.856L42.5652 119.172ZM47.1438 110.834C47.0865 110.903 47.0282 110.973 46.9717 111.044C46.4735 111.593 47.4581 111.056 47.1458 110.835L47.1438 110.834ZM42.7685 118.287C43.0956 118.036 43.3179 117.874 43.2838 117.66L43.2835 117.658C43.1232 117.648 42.967 117.717 42.8657 117.841C42.7641 117.966 42.7289 118.132 42.771 118.287L42.7685 118.287ZM41.7356 119.543C41.673 119.584 41.2842 119.423 41.4588 119.666C41.5165 119.607 41.5758 119.556 41.6501 119.646L41.6498 119.645C41.5901 119.802 41.5724 119.97 41.5976 120.135C41.8306 119.561 42.1851 120.246 42.4279 119.765C42.1409 119.601 42.3586 119.387 41.9912 119.23C41.7448 119.213 41.8389 119.477 41.7381 119.543L41.7356 119.543ZM45.656 111.365C45.5963 111.423 45.5383 111.475 45.4627 111.384L45.462 111.383C45.5536 111.268 45.6823 111.187 45.8262 111.156C45.6557 110.915 45.7409 110.651 45.37 110.43C45.2206 110.545 45.0547 110.51 44.9198 110.761C44.9841 110.921 45.2899 110.853 45.3199 110.915C45.3635 111.005 45.1371 111.234 45.166 111.315C45.2618 111.592 45.7021 111.896 45.6533 111.363L45.656 111.365ZM40.2516 118.147C40.1723 118.27 39.9419 118.426 39.9069 118.565C39.8905 118.636 40.1745 118.754 40.0301 118.843C39.9 118.655 39.3933 119.273 39.6008 119.365C39.8898 119.159 39.6373 120.029 40.1057 119.606C39.9242 119.43 40.3314 119.198 40.2397 119.015C40.5179 119.243 40.8051 119.546 41.0582 119.513C40.8347 119.946 40.3988 119.756 40.3809 119.482C40.0833 119.702 40.4585 119.755 40.5214 119.953C40.5549 120.053 40.4226 120.239 40.5621 120.336C40.7747 120.176 40.6094 119.62 41.0123 120.005C41.355 119.746 40.8904 119.567 41.233 119.309C41.6095 118.736 42.3627 118.798 42.3519 117.949C42.1193 117.864 41.9526 118.453 41.7125 118.3C41.7951 118.156 41.6489 118.14 41.5025 118.128L41.5013 118.125C41.5935 118.01 41.7212 117.93 41.8652 117.897C41.4249 117.723 41.5328 117.57 41.0468 117.399C40.9199 117.516 40.7397 117.849 40.5958 117.732C40.378 117.548 40.341 118.013 40.2536 118.148L40.2516 118.147ZM38.1797 119.604C38.3114 119.745 38.4921 119.83 38.685 119.844C38.64 119.948 38.5177 120.052 38.6165 120.138C38.7649 120.01 38.9352 120.104 39.0865 119.998C38.6552 119.853 38.6816 119.568 38.1797 119.604L38.1797 119.604ZM38.654 117.534C38.8742 117.769 38.5496 118.057 38.9188 118.278C39.357 117.953 39.0932 117.205 38.6538 117.533L38.654 117.534ZM39.9994 113.553C40.2283 113.305 40.378 113.814 40.4173 113.897C40.6502 113.679 41.0114 113.63 40.7429 113.288C40.5652 113.53 39.8301 113.012 39.9994 113.553L39.9994 113.553ZM40.1224 113.829C39.3354 114.314 40.2682 114.419 40.1224 113.829V113.829ZM39.0707 114.895C39.2493 115.081 39.3989 114.967 39.575 115.135C39.1316 115.189 39.4132 115.716 39.7543 115.984C40.0955 115.66 39.7 115.412 39.7658 115.117C39.7466 114.821 39.2962 114.471 39.0745 114.896L39.0707 114.895ZM38.8127 115.209C39.0633 115.437 38.9765 115.679 39.3169 115.449C39.292 115.198 39.0545 115.124 38.8124 115.208L38.8127 115.209ZM37.5997 115.615C37.5519 115.836 37.8868 115.847 38.1047 115.855C38.1738 115.857 38.2448 116.029 38.3147 116.027C38.3606 116.026 38.4795 115.74 38.3819 115.733C38.1452 115.93 37.8215 115.244 37.6001 115.614L37.5997 115.615ZM36.5142 116.295C36.7743 115.982 36.4432 116.975 36.9338 116.639C36.5715 116.323 37.4394 116.476 37.0864 116.238C36.9568 116.39 36.2958 115.86 36.5118 116.299L36.5142 116.295ZM34.8172 118.575C34.8803 119.386 35.1809 118.264 35.2351 118.92C35.6273 118.592 35.0839 118.357 35.0564 118.071L35.0568 118.07C34.9096 118.202 34.8205 118.386 34.809 118.583L34.8172 118.575ZM35.176 120.273L35.3473 120.064L35.3481 120.063C35.2885 120.013 35.1995 120.022 35.1499 120.081C35.1003 120.141 35.1083 120.23 35.1679 120.279L35.176 120.273ZM127.732 104.142C127.503 104.476 126.896 104.314 127.216 104.77C127.587 104.842 127.288 104.3 127.666 104.439C127.587 104.577 127.739 104.689 127.895 104.804C128.149 104.551 127.897 104.353 127.732 104.142L127.732 104.142ZM34.7855 117.333C34.8757 117.217 35.0044 117.136 35.1477 117.105C34.9015 116.874 34.6872 117.001 34.4522 116.883C34.5002 116.827 34.465 116.695 34.3481 116.797C34.4567 116.923 34.3173 116.967 34.1768 117.006C34.3933 117.257 34.5608 117.003 34.7855 117.333L34.7855 117.333ZM42.9587 112.302C43.0123 111.942 43.5523 112.129 43.3035 111.882C43.2447 111.942 43.1857 111.995 43.1122 111.903C43.2228 111.732 43.4664 111.547 43.3521 111.398C43.2354 111.517 43.1163 111.62 42.9671 111.438C42.6323 111.757 42.5112 112.057 42.9587 112.302L42.9587 112.302ZM35.7968 120.796C35.7204 120.912 35.1712 120.636 35.4333 121.023C35.5013 120.826 36.051 121.103 35.7968 120.796ZM73.8518 98.4183C74.3475 98.0806 73.7347 97.8511 73.8625 97.5504L73.8629 97.5497C74.0232 97.5598 74.1791 97.4921 74.2817 97.3685C74.384 97.2437 74.4202 97.0775 74.3797 96.9218C74.2543 97.0297 74.2114 96.8907 74.1704 96.7483C73.9052 97.3207 73.3888 97.9161 73.8518 98.4183L73.8518 98.4183ZM57.534 123.588C57.6035 124.019 57.4761 123.883 57.8464 123.846C57.9228 123.837 57.9999 123.859 58.0592 123.908C58.1192 123.956 58.1554 124.028 58.1606 124.104C58.2208 123.827 58.7627 124.012 58.5046 123.686C58.1757 124.086 58.188 123.589 58.0007 123.446C58.0322 123.47 57.8549 123.485 57.8088 123.465C57.6902 123.416 57.6117 123.264 57.4964 123.207C57.255 123.364 57.5102 123.45 57.534 123.589L57.534 123.588ZM51.7731 136.567C51.4924 136.657 51.8805 136.252 51.3548 136.223C51.7309 136.048 51.2353 135.523 51.4219 135.928C51.3134 136.399 50.9205 136.51 50.4866 136.211C50.3146 136.757 50.0365 136.204 49.8284 136.371C49.9658 136.486 49.7733 136.634 49.8691 136.755L49.8687 136.755C50.0951 136.733 50.3235 136.743 50.5468 136.785C50.3652 136.896 50.1743 136.922 49.9935 137.032L49.9928 137.032C50.3068 137.068 50.5409 137.337 50.535 137.654C50.8525 137.293 51.1841 137.075 51.556 137.266L51.5564 137.265C51.7618 137.097 51.8465 136.822 51.7731 136.567L51.7731 136.567ZM51.1776 138.358C51.388 138.419 51.4735 138.398 51.4545 138.235C51.408 137.755 52.0593 137.971 51.7797 137.626C51.5195 137.673 51.0936 137.588 51.141 137.977C51.0009 137.897 50.8581 137.715 50.7402 137.823L50.7395 137.822C50.8462 138.062 50.8723 138.331 50.8147 138.586C50.7558 138.537 50.626 138.573 50.7288 138.69C50.934 138.498 51.212 139.046 51.4051 138.72C51.2922 138.602 51.0903 138.492 51.1742 138.357L51.1776 138.358ZM52.9378 136.649C52.5888 136.122 52.1758 137.383 52.5931 137.066C52.3392 136.818 52.8786 137.002 52.9336 136.643L52.9378 136.649ZM52.8473 139.733C52.6917 139.398 53.3875 139.514 53.1739 139.125C52.8342 139.291 52.583 139.597 52.4858 139.961C53.0106 139.99 52.6266 140.397 52.9034 140.305C53.136 140.092 52.7013 139.943 52.8473 139.733L52.8473 139.733ZM53.6103 139.659C53.9877 139.797 53.6886 139.254 54.0605 139.328C53.8824 139.141 53.7323 139.256 53.5563 139.088C53.3698 139.266 53.4844 139.416 53.3157 139.592C53.7223 139.725 53.2924 140.413 53.6671 140.231C53.6432 140.043 53.6249 139.85 53.6103 139.659L53.6103 139.659ZM79.5395 120.293C79.7298 119.804 80.0751 120.359 79.9231 120.252C80.2305 120.455 80.6875 120.576 80.8585 119.969C80.826 119.771 80.4141 119.961 80.1812 119.938C80.0163 119.921 80.0526 120.047 79.9036 120.061C79.8636 120.064 79.727 119.872 79.6944 119.888C79.5737 119.957 79.464 120.225 79.5432 120.289L79.5395 120.293ZM65.2664 139.777C64.9564 139.951 65.4517 140.511 65.5131 140.331C65.3085 140.156 65.6174 139.933 65.2698 139.775L65.2664 139.777ZM61.1425 145.859C61.0374 145.771 60.947 145.84 60.8472 145.791C60.9399 145.655 61.0193 145.518 60.8061 145.408L60.5473 145.722C60.7617 146.184 61.5724 145.742 61.1455 145.855L61.1425 145.859ZM64.1327 146.915C64.2255 146.778 64.3048 146.641 64.0916 146.532C63.747 146.557 63.8519 146.877 63.9569 147.122C64.1231 146.854 64.3548 147.254 64.5298 147.066C64.4675 146.66 64.3979 146.997 64.1357 146.911L64.1327 146.915ZM105.34 112.388C105.21 112.131 105.056 112.429 104.957 112.428C104.901 112.426 104.802 112.244 104.748 112.257C104.594 112.299 104.406 112.529 104.489 112.572C104.762 112.382 105.069 112.572 105.34 112.388L105.34 112.388ZM53.9582 140.295C54.0518 140.157 54.1318 140.023 53.9176 139.912C53.8264 140.324 53.5881 140.69 53.2473 140.939C53.4853 141.408 53.6035 140.636 53.8195 140.883C53.773 140.986 53.8074 141.077 53.9427 141.161C54.1071 140.874 54.3203 141.089 54.4772 140.723C54.2344 140.503 54.3226 140.265 53.9617 140.297L53.9582 140.295Z" fill="#E39102"/>
</g>
<defs>
<clipPath id="clip0_34_2">
<rect width="141.129" height="141.129" fill="white" transform="translate(122.455 192.613) rotate(-150.19)"/>
</clipPath>
</defs>
</svg>
